<?xml version="1.0" encoding="UTF-8" standalone="no"?>
<!-- Created with Inkscape (http://www.inkscape.org/) -->

<svg
   version="1.1"
   id="svg1"
   width="1080"
   height="590"
   viewBox="0 0 1080 590"
   sodipodi:docname="logo.svg"
   inkscape:version="1.4 (86a8ad7, 2024-10-11)"
   xmlns:inkscape="http://www.inkscape.org/namespaces/inkscape"
   xmlns:sodipodi="http://sodipodi.sourceforge.net/DTD/sodipodi-0.dtd"
   xmlns="http://www.w3.org/2000/svg"
   xmlns:svg="http://www.w3.org/2000/svg">
  <defs
     id="defs1">
    <filter
       inkscape:collect="always"
       style="color-interpolation-filters:sRGB"
       id="filter2"
       x="-0.0010272676"
       y="-0.0011463677"
       width="1.0016615"
       height="1.0022928">
      <feGaussianBlur
         inkscape:collect="always"
         stdDeviation="0.14783139"
         id="feGaussianBlur2" />
    </filter>
  </defs>
  <sodipodi:namedview
     id="namedview1"
     pagecolor="#ffffff"
     bordercolor="#000000"
     borderopacity="0.25"
     inkscape:showpageshadow="2"
     inkscape:pageopacity="0.0"
     inkscape:pagecheckerboard="0"
     inkscape:deskcolor="#d1d1d1"
     showguides="true"
     inkscape:zoom="1.2055556"
     inkscape:cx="539.99997"
     inkscape:cy="294.88478"
     inkscape:window-width="1920"
     inkscape:window-height="1051"
     inkscape:window-x="-9"
     inkscape:window-y="-9"
     inkscape:window-maximized="1"
     inkscape:current-layer="g1" />
  <g
     inkscape:groupmode="layer"
     inkscape:label="Image"
     id="g1">
    <path
       id="path1"
       style="opacity:1;mix-blend-mode:color-burn;fill:#000000;fill-rule:nonzero;stroke-width:0.643125;filter:url(#filter2);stroke:#000000;stroke-opacity:1;fill-opacity:0.28627452"
       inkscape:transform-center-x="8.7033027"
       inkscape:transform-center-y="13.787294"
       d="m 838.25,0 c -0.60654,0.00116868 -1.0778,4.3213574 -1.20117,10.957031 l -0.19922,10.955078 -4.76953,0.65625 c -2.62231,0.360472 -5.57709,0.879623 -6.56641,1.154297 -0.9894,0.274677 -2.87642,2.163858 -4.19531,4.197266 -1.31889,2.03341 -9.06198,17.672108 -17.20508,34.753906 -8.1431,17.0818 -16.45818,34.441195 -18.47851,38.576172 -2.02031,4.13497 -5.4376,11.12647 -7.59375,15.53711 -2.15615,4.41065 -8.18888,16.89176 -13.40625,27.73633 -5.21736,10.8446 -9.50274,20.65514 -9.52344,21.80078 -0.0376,2.05507 0.30285,2.08215 25.42773,2.03516 14.0066,-0.0268 26.57535,-0.47029 27.92969,-0.98438 1.42729,-0.54174 2.95874,-2.29125 3.64453,-4.16211 0.65072,-1.77521 1.27679,-8.31082 1.39063,-14.52344 l 0.20507,-11.29492 5.24805,0.49805 c 2.88598,0.27416 9.07204,0.79222 13.74609,1.15234 l 8.49805,0.65625 -0.25195,28.29102 -0.25195,28.29297 -70.10352,0.13476 -70.10156,0.13281 0.20117,-11.01562 0.20117,-11.01758 4.55469,-0.008 c 2.50542,-0.005 5.78469,-0.64135 7.28711,-1.41406 1.50242,-0.7727 3.46372,-2.23968 4.35937,-3.26172 0.89562,-1.02202 2.36421,-3.66222 3.26172,-5.86719 0.89747,-2.20498 3.49271,-7.86269 5.76758,-12.57227 2.27492,-4.70958 9.61299,-20.49791 16.30664,-35.08398 6.69368,-14.58609 12.59699,-27.420809 13.11914,-28.523438 0.52213,-1.102626 2.65912,-5.614881 4.74805,-10.02539 2.08895,-4.41051 6.99059,-15.009605 10.89258,-23.554688 3.90199,-8.545077 8.33433,-18.195473 9.84961,-21.445312 1.51531,-3.249831 2.54927,-6.469242 2.29882,-7.154297 -0.27848,-0.761646 -3.59022,-1.517066 -8.52539,-1.945313 l -8.07226,-0.701171 0.20898,-11.414063 c 0.13105,-7.1618491 -0.17521,-11.41138513 -0.82226,-11.41015612 -0.66798,0.001285 -1.01408,4.49822792 -0.98438,12.77148412 l 0.0469,12.767578 8.1582,0.273438 8.1582,0.273437 -1.375,2.71875 c -0.75633,1.494761 -3.28584,6.673138 -5.62109,11.507813 -2.33523,4.834674 -4.24986,9.031112 -4.25586,9.326172 -0.005,0.295053 -0.89996,2.429363 -1.98828,4.742187 -1.08835,2.31282 -3.95876,8.491152 -6.37891,13.728516 -2.42013,5.237363 -5.74902,12.373249 -7.39844,15.857422 -1.64941,3.484167 -3.00381,6.521222 -3.00781,6.75 -0.004,0.228757 -2.38955,5.271992 -5.30078,11.207031 -2.91127,5.93502 -6.21726,13.00881 -7.34766,15.7207 -1.13033,2.71183 -3.02327,6.99816 -4.20703,9.52344 -1.18377,2.52533 -4.24834,9.10221 -6.81054,14.61524 -2.56217,5.51302 -6.0242,12.86348 -7.69141,16.33398 -1.66722,3.47052 -3.03492,6.67796 -3.04492,7.12891 -0.008,0.45097 -1.17349,1.95958 -2.58789,3.35156 -1.99325,1.9617 -4.03335,2.69017 -9.07031,3.23828 l -6.49805,0.70703 -0.23633,12.93945 -0.23438,12.93946 72.10352,-0.13867 72.10547,-0.13868 0.28906,-30.28125 0.28906,-30.28125 -4.99414,-0.64843 c -2.74676,-0.35672 -9.78835,-0.90653 -15.64843,-1.22071 l -10.65625,-0.57031 -0.59571,13.59375 c -0.56519,12.87199 -0.72494,13.69744 -2.99609,15.51367 -2.21521,1.77154 -4.27129,1.92255 -26.87695,1.96485 -13.46326,0.0263 -24.27601,-0.2915 -24.02735,-0.70508 0.24868,-0.41358 1.63378,-3.2314 3.07813,-6.26367 1.44438,-3.03223 5.887,-12.28097 9.87109,-20.55079 3.98407,-8.26984 8.7749,-18.19345 10.64649,-22.05273 1.8716,-3.8593 4.92941,-10.17392 6.79492,-14.0332 1.86549,-3.859254 7.4721,-15.587498 12.45898,-26.062503 4.98688,-10.475002 11.59651,-24.231987 14.68946,-30.572266 3.09289,-6.340279 6.51239,-13.107176 7.5996,-15.037109 1.08719,-1.929922 3.04017,-4.058595 4.3379,-4.730469 1.29781,-0.671874 4.50322,-1.494817 7.125,-1.828125 l 4.76757,-0.605469 0.21875,-11.957031 C 839.16681,4.6519258 838.86156,-0.0012291 838.25,0 Z M 715.55078,0.23632812 c -1.12761,0.002161 -1.20269,0.54532408 -0.375,2.75390628 0.56723,1.5136461 2.67038,7.7065946 4.67383,13.7617186 2.00344,6.055114 5.83498,17.539799 8.51367,25.521485 2.67872,7.981673 5.64455,16.989914 6.58984,20.017578 0.94534,3.027669 3.20033,9.782456 5.01172,15.011718 l 3.29297,9.507813 -7.59765,16.539063 c -4.17905,9.09642 -9.00315,19.4711 -10.72071,23.05469 -1.71755,3.58357 -4.30237,9.10937 -5.74414,12.27929 l -2.62304,5.76368 -23.58399,0.0449 c -18.57395,0.0355 -23.57845,-0.22991 -23.56055,-1.2461 0.013,-0.70963 1.61161,-5.78269 3.55079,-11.27343 l 3.52539,-9.98243 21.1914,-0.31054 c 16.73943,-0.24552 21.1984,-0.58947 21.2168,-1.63281 0.0133,-0.72648 -1.05834,-5.10781 -2.38086,-9.73829 -1.3225,-4.63054 -2.98517,-10.22194 -3.69531,-12.423824 -0.71014,-2.201911 -3.48106,-11.434276 -6.15821,-20.517578 -2.67717,-9.083309 -5.44844,-18.317636 -6.1582,-20.519532 -0.70976,-2.201895 -2.21191,-7.241537 -3.33789,-11.199218 -1.12595,-3.957682 -2.64964,-7.42743 -3.38672,-7.710938 -0.73711,-0.283509 -1.60079,-0.10657 -1.91797,0.392578 -0.31716,0.499146 -7.02962,19.53249 -14.91797,42.296875 -7.88836,22.764387 -18.09989,52.081187 -22.6914,65.148437 -4.59148,13.06722 -8.35975,24.39317 -8.37305,25.16797 -0.0168,0.9166 1.59229,1.62651 4.60742,2.03516 2.54852,0.34541 6.37216,0.62509 8.49805,0.62109 l 3.86523,-0.008 -0.21093,11.51758 -0.21094,11.51757 -33.04102,0.0625 -33.04101,0.0645 0.20117,-11.01758 0.20117,-11.01563 2.75586,-0.12109 c 1.51552,-0.0657 3.97303,-0.26518 5.46094,-0.44531 1.48791,-0.18019 3.63909,-0.82595 4.78125,-1.4336 1.14215,-0.60766 2.75786,-2.11638 3.58984,-3.35351 0.83197,-1.23714 6.22019,-15.31614 11.97266,-31.28516 5.75245,-15.96901 11.22974,-31.06252 12.17383,-33.54297 0.94416,-2.48048 4.05993,-11.048732 6.92187,-19.041013 2.86196,-7.992275 8.78572,-24.453798 13.16406,-36.580078 4.37838,-12.126288 7.97088,-22.568242 7.98438,-23.205078 0.0133,-0.648924 -2.28331,-1.434089 -5.22266,-1.785157 -2.88468,-0.344542 -6.9287,-0.869104 -8.98828,-1.166015 l -3.74414,-0.539063 0.19922,-10.929687 c 0.12109,-6.6180738 -0.19641,-10.9270105 -0.80273,-10.9257815 -0.61146,0.001171 -1.08506,4.6458937 -1.21875,11.9316405 l -0.21875,11.929688 3.74609,0.539062 c 2.05958,0.296917 6.0465,0.815347 8.86133,1.150391 l 5.11914,0.609375 -3.09375,8.191406 c -1.70077,4.505411 -4.69534,12.701 -6.6543,18.212891 -1.95899,5.511887 -6.68343,18.589738 -10.5,29.0625 -3.81658,10.47276 -8.87425,24.454069 -11.23828,31.068359 -2.36403,6.6143 -4.95509,13.44634 -5.75977,15.18359 -0.80468,1.73722 -1.47122,3.54221 -1.48242,4.00977 -0.01,0.46759 -2.86764,8.51621 -6.35156,17.88672 -4.31058,11.59387 -7.11877,17.72511 -8.79102,19.18945 -1.63491,1.43164 -4.49452,2.39219 -8.54492,2.86914 l -6.08789,0.7168 -0.23633,12.91992 -0.23632,12.92188 35.02539,-0.0664 35.02343,-0.0664 0.60352,-2.25586 c 0.3309,-1.23998 0.56102,-7.21067 0.51172,-13.26953 l -0.0898,-11.01562 -3.5,-0.24414 c -1.92489,-0.13369 -5.78541,-0.48676 -8.57812,-0.78516 l -5.07617,-0.54297 19.18554,-54.8164 c 10.55285,-30.149224 20.55989,-58.98496 22.23633,-64.080082 1.67642,-5.095124 3.33771,-8.928842 3.69336,-8.519532 0.35563,0.409315 3.20931,9.300294 6.3418,19.759766 3.1325,10.459473 8.22855,27.454535 11.32422,37.765628 l 5.6289,18.74804 -21.05859,0.3086 -21.05859,0.31054 -4.05274,11.49219 c -2.22919,6.32033 -4.06894,12.29507 -4.08594,13.27735 -0.0305,1.6679 1.69236,1.78152 26.0625,1.73632 l 26.09571,-0.0488 3.16797,-6.76758 c 1.74294,-3.72135 4.29347,-9.14592 5.66601,-12.05664 1.37254,-2.91073 2.50086,-5.55626 2.50586,-5.87891 0.006,-0.32259 1.64266,-3.94802 3.63867,-8.05469 1.99601,-4.10668 5.6035,-11.77338 8.01563,-17.039059 l 4.38476,-9.574219 -1.67382,-5.138672 C 743.33823,79.111386 738.10243,63.285433 732.625,46.771484 727.14753,30.257543 722.26068,15.965269 721.76562,15.009766 c -0.49504,-0.955496 -0.89341,-2.177199 -0.88281,-2.714844 0.01,-0.537643 -0.86996,-3.4714693 -1.95508,-6.5195314 -1.1052,-3.1044359 -2.58979,-5.54049645 -3.37695,-5.53906248 z M 133.08398,86.318359 c 0.39834,0.632283 0.78686,1.270722 1.20508,1.890625 0.42506,-0.06279 0.87535,-0.09576 1.35742,-0.0918 -0.9759,-0.680683 -1.73261,-1.210149 -2.5625,-1.798829 z m 298.42774,9.164063 c -22.79663,0.07765 -27.5932,0.379468 -38.58984,2.423828 -6.9068,1.284026 -14.59167,2.71365 -17.07813,3.17578 -2.48644,0.46214 -8.36401,1.55035 -13.06055,2.41992 -4.69659,0.86956 -15.09374,2.70621 -23.10351,4.08008 -8.00978,1.37387 -19.3061,3.18875 -25.10352,4.0332 -5.79744,0.84445 -16.18369,2.20796 -23.08203,3.0293 -6.89834,0.82137 -21.02021,2.0711 -31.38086,2.77735 -15.09815,1.02912 -22.15494,1.03935 -35.54492,0.0527 -9.18846,-0.67704 -22.19239,-2.31624 -28.89844,-3.64258 -6.70609,-1.32634 -15.67633,-3.56023 -19.93359,-4.96484 -4.25724,-1.40461 -12.25454,-4.74819 -17.77344,-7.42969 -1.14051,-0.55415 -2.38596,-1.4187 -3.68555,-2.103516 -2.70862,-0.390347 -5.41102,-0.821848 -8.11328,-1.255859 3.63912,2.086995 7.3583,4.303735 10.69922,5.874995 5.00293,2.353 11.78272,5.18642 15.06641,6.29688 3.28364,1.11041 9.55787,2.90626 13.94336,3.99023 4.38548,1.08397 11.11898,2.45205 14.96289,3.03907 3.84389,0.58703 12.16175,1.51249 18.48437,2.05859 6.32266,0.54617 16.22569,0.98396 22.00781,0.97266 5.78223,-0.0114 16.82917,-0.4842 24.54883,-1.05078 7.71969,-0.56659 18.1,-1.49637 23.06641,-2.06641 4.96641,-0.57006 14.22385,-1.74376 20.57226,-2.60742 6.34844,-0.86365 15.83607,-2.22358 21.08204,-3.02344 5.24597,-0.79983 12.02384,-1.90239 15.0625,-2.44922 3.03866,-0.54687 10.273,-1.93934 16.07617,-3.0957 5.80312,-1.15633 14.16771,-2.76736 18.58789,-3.58008 4.42022,-0.81272 12.32949,-2.16665 17.57617,-3.007812 5.24674,-0.841139 16.97793,-1.818213 26.07031,-2.169922 10.35413,-0.400544 20.45254,-0.200676 27.02344,0.533203 5.7702,0.64445 15.20176,2.278031 20.95898,3.630861 2.48214,0.58324 4.7452,1.3981 7.51368,2.18359 -0.45489,-0.3878 -0.8676,-0.81959 -1.33985,-1.18945 -1.6421,-1.17431 -3.37308,-2.24014 -5.14062,-3.242189 -1.24557,-0.315531 -2.34583,-0.713197 -3.47852,-0.978515 -11.54428,-2.704305 -12.87474,-2.800374 -37.99609,-2.714844 z m -299.71875,3.25 c 0.53749,0.906857 1.11205,2.054098 1.56055,2.763668 1.91249,3.02582 6.33514,9.3267 9.82812,14.00196 3.493,4.67524 10.13357,12.4904 14.75781,17.36523 4.62426,4.87481 12.62486,12.30109 17.7793,16.50391 5.15439,4.20281 11.15176,8.81895 13.32813,10.25781 2.17633,1.43886 6.40783,4.14272 9.40234,6.00977 2.99447,1.86704 8.56833,5.01706 12.38672,6.99804 3.81843,1.98098 10.29688,4.95699 14.39648,6.61524 4.09966,1.65824 11.2616,4.188 15.91602,5.62109 4.6544,1.43311 13.87294,3.6993 20.48437,5.03516 6.61145,1.33588 15.81956,2.8505 20.46289,3.36523 4.64335,0.51481 21.28594,0.73512 36.98438,0.49024 18.11052,-0.28251 32.76186,-1.02491 40.08594,-2.03125 6.34862,-0.87234 14.02825,-2.01069 17.0664,-2.5293 1.55192,-0.26492 3.85397,-0.66343 6.04883,-1.04102 -2.36396,-0.35786 -4.72659,-0.7225 -7.07813,-1.15039 -2.02128,0.35845 -4.66829,0.85461 -5.95898,1.07031 -3.59032,0.60005 -10.81616,1.58804 -16.05859,2.19532 -5.24241,0.6073 -21.02401,1.29776 -35.07032,1.53515 -17.8157,0.30108 -28.79971,0.0238 -36.32031,-0.91992 -5.92941,-0.74404 -15.3618,-2.32767 -20.96094,-3.51953 -5.59912,-1.19188 -13.76248,-3.2952 -18.14257,-4.67383 -4.3801,-1.37858 -11.76467,-4.07935 -16.41016,-6 -4.64552,-1.92064 -10.67828,-4.62482 -13.40625,-6.00976 -2.72799,-1.38494 -8.30203,-4.54424 -12.38672,-7.02149 -4.08464,-2.47725 -12.31465,-8.21115 -18.28906,-12.74218 -5.9744,-4.53107 -14.47234,-11.99369 -18.88281,-16.58399 -4.41048,-4.59033 -10.61997,-11.49609 -13.79883,-15.3457 -0.35568,-0.43073 -0.71053,-0.98061 -1.0918,-1.45508 -3.01025,-3.19255 -6.00547,-6.40083 -8.9043,-9.69922 -2.60738,-2.97959 -5.23143,-5.99571 -7.72851,-9.105468 z m 361.63086,6.749998 c 2.19819,2.0944 4.47493,4.10323 6.94726,5.87305 1.62103,0.74985 3.14683,1.31745 4.51563,2 4.70017,2.34371 12.47086,7.0798 17.26758,10.52539 3.07622,2.20971 6.93048,5.47792 10.54882,8.71875 2.64635,1.16125 5.21228,2.45191 7.57032,4.16601 0.40153,0.25228 0.81037,0.49276 1.21484,0.74024 -0.03,-0.0317 -0.0619,-0.072 -0.0918,-0.10352 -5.14148,-5.42526 -13.07849,-12.54757 -17.63671,-15.82812 -4.55822,-3.28056 -12.22892,-7.95144 -17.04688,-10.38086 -3.76615,-1.89905 -8.90385,-3.98428 -13.28906,-5.71094 z m 56.4375,45.9707 c 0.52362,0.69194 1.27114,1.5642 1.70508,2.17383 3.20579,4.50377 7.0552,10.48409 8.55468,13.28907 l 2.36133,4.41796 c 0.28148,-0.72805 0.53363,-1.46498 0.75196,-2.21484 0.0805,-0.28036 0.10773,-0.57096 0.16796,-0.85547 -0.4449,-1.12342 -0.51027,-1.74901 -1.15039,-3 -1.40564,-2.74698 -4.56966,-7.92051 -7.03125,-11.49609 -0.0786,-0.11419 -0.29083,-0.35679 -0.37695,-0.47852 -1.63811,-0.6709 -3.30367,-1.27049 -4.98242,-1.83594 z m -48.06055,15.01563 c -20.62543,0.0172 -29.10377,0.42588 -38.08008,1.83398 -6.35088,0.99625 -16.74921,2.95377 -23.10742,4.35157 -6.35821,1.39779 -19.02797,4.34713 -28.1543,6.55273 -4.06495,0.9824 -7.48902,1.64764 -11.86523,2.625 1.11243,0.08 2.22259,0.18601 3.33594,0.25195 1.94782,0.19773 3.88752,0.23065 5.82617,0.17774 0.58399,-0.14197 0.86647,-0.18439 1.44336,-0.32617 9.24284,-2.27151 18.61381,-4.47486 20.82422,-4.89844 2.21042,-0.42357 7.41164,-1.53054 11.55859,-2.45899 4.14699,-0.92843 11.15455,-2.32841 15.57422,-3.11132 4.41964,-0.78292 13.00036,-1.90165 19.06836,-2.48633 6.06801,-0.58468 16.07896,-1.07424 22.24414,-1.08594 0.96744,-0.002 2.60415,0.14196 3.76758,0.16211 1.83724,-0.47011 3.67423,-0.94111 5.49805,-1.46094 -2.87784,-0.0222 -4.36022,-0.12993 -7.9336,-0.12695 z m 48.40039,3.27539 c 0.44727,0.22342 0.88955,0.46139 1.33399,0.68555 2.44658,1.30576 5.06481,2.24498 7.75781,2.88672 0.41028,0.0428 1.12853,0.15787 1.44141,0.18164 0.45135,-0.0302 0.85831,-0.18645 1.08789,-0.61133 0.10452,-0.10733 0.25275,-0.18575 0.31445,-0.32227 0.0226,-0.05 -0.12894,-0.0641 -0.11524,-0.11718 0.0523,-0.20332 0.16441,-0.38576 0.25977,-0.57422 l -2.04883,-0.51172 c -0.83577,-0.20918 -6.10554,-0.99618 -10.03125,-1.61719 z m 279.77149,63.5332 -0.0508,2.86719 c -0.0369,2.01911 1.21111,4.20931 4.21679,7.40235 2.44943,2.60201 4.52218,5.92955 4.86328,7.80664 0.32693,1.79924 0.26285,21.41098 -0.14257,43.58203 -0.40567,22.17103 -1.05917,41.78114 -1.45118,43.57812 -0.42433,1.94512 -2.72059,5.33842 -5.67578,8.38477 -2.7301,2.81429 -4.74155,5.72209 -4.4707,6.46289 0.27087,0.74084 0.48521,1.76179 0.47461,2.26758 -0.007,0.54557 19.49586,0.88132 47.96875,0.82812 42.63276,-0.0815 48.17142,-0.27249 49.61914,-1.69726 1.36794,-1.34688 1.62603,-3.87296 1.61133,-15.77539 l -0.0176,-14.17188 -2.43555,0.004 c -1.86668,0.004 -4.02106,1.99372 -9.23437,8.52929 -4.17137,5.22947 -8.69258,9.68628 -11.69727,11.5293 -4.50068,2.76072 -5.77866,3.03573 -15.76367,3.39648 -5.97621,0.2159 -10.87386,0.005 -10.88086,-0.46875 -0.008,-0.47404 -0.54221,-7.39529 -1.18945,-15.38085 -0.64714,-7.98555 -1.11356,-18.74481 -1.03516,-23.90821 l 0.14258,-9.38867 5.43359,0.44141 c 3.52491,0.28609 6.67363,1.29158 8.96094,2.86132 1.9393,1.33095 3.76571,3.21142 4.06055,4.17774 0.29486,0.96632 1.64646,3.10314 3.0039,4.75 1.35745,1.64686 3.07282,2.99419 3.81055,2.99219 0.73778,-0.001 2.06213,-0.71284 2.94336,-1.58008 1.32593,-1.30495 1.65443,-4.4017 1.90234,-17.95899 0.24811,-13.5573 0.0321,-16.65121 -1.24609,-17.95117 -0.84947,-0.86394 -1.76685,-1.57125 -2.03906,-1.57031 -0.27225,5.4e-4 -1.31776,0.43915 -2.32422,0.97461 -1.00644,0.53544 -3.3646,3.30229 -5.24024,6.14844 -2.13908,3.24593 -4.6445,5.68766 -6.7207,6.55273 -1.82044,0.75852 -5.35188,1.38367 -7.84766,1.38867 l -4.5371,0.008 0.16601,-8.26172 c 0.0918,-4.54438 0.7022,-13.6722 1.35547,-20.28321 0.65318,-6.61105 1.49202,-13.71105 1.86328,-15.77734 0.53112,-2.95615 1.1227,-3.75677 2.77734,-3.75977 1.15658,-0.002 3.50475,0.96596 5.21875,2.15235 1.71406,1.18637 4.15862,3.77295 5.43165,5.74804 1.27295,1.97508 3.38271,4.94188 4.68945,6.5918 1.30663,1.64995 3.98254,3.99646 5.94531,5.21485 2.79411,1.73453 5.08827,2.21277 10.57617,2.20117 4.5778,-0.009 7.68415,-0.52006 8.95703,-1.47266 1.07176,-0.80215 2.79397,-2.70709 3.82618,-4.23242 1.19555,-1.76689 1.91206,-4.62729 1.97656,-7.88281 0.0719,-3.67033 -0.52599,-6.06666 -2.125,-8.50782 -1.52532,-2.3288 -4.09179,-4.18283 -8.15235,-5.89062 l -5.92578,-2.49414 -40.79687,-0.21289 z m -52.06446,0.2168 c -5.23145,0.009 -12.37365,0.69166 -15.87109,1.51953 -3.49741,0.82785 -8.74918,2.63307 -11.67188,4.00977 -2.92272,1.37671 -7.17999,4.30246 -9.45898,6.50195 -2.27899,2.19946 -5.2059,6.11838 -6.50586,8.70899 -1.61782,3.2241 -2.55232,7.18334 -2.96094,12.54882 -0.36496,4.79157 -0.12142,9.68403 0.62696,12.58789 0.6733,2.61266 2.05604,6.32606 3.07226,8.25196 1.01622,1.9259 3.46508,5.2441 5.44141,7.37304 1.97632,2.129 6.70347,6.20776 10.50586,9.06446 3.8024,2.85668 11.59214,8.03764 17.31054,11.51367 5.7184,3.47609 12.24795,7.82617 14.50977,9.66601 2.26183,1.83986 5.06833,4.93703 6.23633,6.88282 1.63182,2.7184 1.95252,4.36565 1.38672,7.11523 -0.405,1.96815 -1.96544,4.70455 -3.46875,6.08008 -2.35494,2.15487 -3.44771,2.44286 -7.89453,2.08398 -3.57276,-0.28831 -6.88936,-1.46905 -10.7754,-3.83593 -3.08761,-1.88063 -8.73644,-6.56762 -12.55273,-10.41602 -3.8163,-3.84841 -9.34615,-10.37257 -12.28711,-14.49805 -2.94096,-4.12546 -6.04493,-8.06309 -6.89844,-8.75 -0.8535,-0.68685 -2.02809,-1.24068 -2.61132,-1.23046 -0.58327,0.01 -1.74452,0.44392 -2.58008,0.96679 -1.2387,0.77515 -1.67928,4.65466 -2.38672,21.00977 l -0.86719,20.06054 -4.9375,-3.77734 -4.9375,-3.77734 0.56445,-46.02735 c 0.3105,-25.31508 0.81454,-46.99142 1.1211,-48.16797 0.30652,-1.17652 2.86596,-3.87975 5.6875,-6.00781 4.08738,-3.08268 5.0802,-4.37929 4.88281,-6.38281 l -0.24805,-2.51563 -15.01757,0.0293 -15.01954,0.0273 -0.38671,2.42578 c -0.30044,1.88403 0.78767,3.47197 4.87695,7.1289 l 5.26172,4.70703 -0.52149,41.9336 c -0.51524,41.45077 -0.54249,41.88805 -2.29687,37.93164 -0.97616,-2.20138 -2.75453,-6.25407 -3.95313,-9.00586 -1.19864,-2.75175 -3.48245,-7.93056 -5.07422,-11.50781 -1.5918,-3.57725 -5.60944,-12.35749 -8.92968,-19.51172 -3.32024,-7.15423 -9.25965,-19.99303 -13.19727,-28.53125 -5.97494,-12.95596 -7.9325,-16.21582 -11.83789,-19.70313 -3.32876,-2.97239 -6.16798,-4.49824 -9.83594,-5.28711 -3.04372,-0.65467 -12.13303,-0.96812 -22.18359,-0.76367 l -17.02734,0.34766 -0.3418,2.5332 c -0.27119,2.01008 0.60659,3.25318 4.24023,6.00195 2.52004,1.90637 4.97536,4.22361 5.45703,5.15039 0.48623,0.9355 0.50574,21.94863 0.043,47.23829 -0.45841,25.05408 -1.11863,46.26204 -1.46679,47.1289 -0.34817,0.86686 -2.8689,3.20051 -5.60157,5.18555 -3.39333,2.46496 -4.98116,4.32358 -5.00976,5.86133 -0.0226,1.23836 0.26443,2.56273 0.63867,2.94336 0.37425,0.38015 7.24226,0.55583 15.26172,0.38867 l 14.58008,-0.30469 0.35547,-2.65234 c 0.29057,-2.16815 -0.4857,-3.26203 -4.26172,-6 -2.54019,-1.84186 -4.99839,-4.39172 -5.46094,-5.66602 -0.46255,-1.27432 -0.4739,-20.42721 -0.0254,-42.5625 0.4485,-22.13525 1.04932,-39.56981 1.33398,-38.74414 0.28466,0.8257 2.79699,6.45419 5.58399,12.50781 2.78698,6.05364 6.68993,14.60902 8.67187,19.01172 1.98196,4.40272 7.05606,15.4333 11.27735,24.51367 4.22134,9.08035 8.56977,18.5371 9.66211,21.01368 1.09236,2.47655 3.54841,6.64923 5.45898,9.27343 2.18162,2.99654 5.31036,5.69079 8.41016,7.24414 4.74196,2.37632 5.69482,2.4729 24.29492,2.4375 19.14117,-0.0366 19.37059,-0.0633 20.30664,-2.29296 l 0.94726,-2.25586 0.0234,2.2539 c 0.0172,1.7416 0.6108,2.25105 2.61914,2.24805 1.42914,-0.003 4.94532,-1.28394 7.8125,-2.84766 2.8672,-1.5637 6.394,-3.14037 7.83789,-3.5039 1.76022,-0.4432 5.53955,0.37911 11.46875,2.49609 8.14541,2.90829 9.86908,3.16087 21.85743,3.19727 11.15399,0.0339 13.935,-0.29046 19.45117,-2.27149 3.54008,-1.27136 8.34032,-3.61026 10.66601,-5.19531 2.32567,-1.58502 5.89844,-4.69713 7.94141,-6.91797 2.04302,-2.22088 4.52038,-5.53249 5.50391,-7.35742 1.05056,-1.94934 2.03577,-6.51208 2.38867,-11.06055 0.53333,-6.87416 0.31391,-8.34808 -1.95117,-13.1543 -1.40302,-2.97728 -5.01097,-7.89491 -8.01758,-10.92773 -3.00659,-3.03284 -12.63265,-10.61218 -21.39258,-16.84375 -8.75993,-6.23154 -17.76024,-13.12917 -20,-15.32813 -2.2397,-2.19898 -5.01043,-6.05374 -6.15625,-8.5664 -1.14584,-2.51266 -2.06618,-5.45258 -2.04688,-6.5332 0.0198,-1.08062 0.79895,-3.08163 1.73047,-4.44532 0.93151,-1.36366 2.40036,-3.04419 3.26367,-3.73437 0.86333,-0.69016 2.79511,-1.25777 4.29297,-1.25977 1.8119,-0.003 3.57077,1.02545 5.25782,3.07227 1.91403,2.32213 2.52584,4.22307 2.49414,7.75586 -0.0231,2.57413 0.29875,6.62622 0.71484,9.0039 0.44148,2.52278 1.90629,5.54399 3.51758,7.25586 1.51857,1.61342 4.6866,3.86992 7.04101,5.01563 3.17732,1.54614 6.12476,2.0638 11.43164,2.0039 4.90189,-0.0553 8.29544,-0.66867 10.79493,-1.95117 2.00514,-1.02883 4.72677,-3.4105 6.04882,-5.29297 1.8374,-2.61614 2.31672,-4.37655 2.03516,-7.46875 -0.20257,-2.22497 -1.12831,-5.71222 -2.05859,-7.75 -0.93031,-2.03777 -3.39262,-5.43544 -5.47071,-7.54882 -2.07809,-2.11336 -5.91991,-4.89003 -8.53711,-6.17188 -2.6172,-1.28188 -5.65127,-2.70997 -6.74414,-3.17187 -1.09289,-0.46198 -5.12875,-1.4943 -8.96875,-2.29493 -3.84001,-0.80065 -11.26265,-1.44845 -16.49414,-1.43945 z m -418.51758,0.73633 -0.0566,3.08398 c -0.0404,2.20794 0.79561,3.81272 2.94336,5.64453 1.65037,1.40757 3.85012,4.28647 4.88868,6.39649 1.78549,3.62762 1.84722,6.1256 1.11914,45.91797 -0.65633,35.87085 -1.01165,42.66393 -2.41016,46.00976 -0.90239,2.15892 -3.44313,5.51974 -5.64453,7.46875 -2.20143,1.94897 -4.01851,4.40294 -4.03711,5.45313 -0.0192,1.05013 0.26612,2.21496 0.63476,2.58984 l 0.002,0.002 c 0.36866,0.37502 13.31801,0.53699 28.77734,0.36132 l 28.10742,-0.31836 0.37891,-2.37304 c 0.22736,-1.42378 -0.74874,-4.02304 -2.44336,-6.50391 -1.55273,-2.27313 -3.31535,-5.93462 -3.91601,-8.13672 -0.60069,-2.20214 -1.48746,-6.48316 -1.97071,-9.51172 -0.48327,-3.02855 -0.92171,-10.46261 -0.97461,-16.52148 l -0.0957,-11.01563 15.02344,-0.31836 c 8.26318,-0.17503 16.03223,-0.0687 17.26562,0.23633 2.21506,0.54781 2.23895,0.7613 1.9336,17.44531 -0.21752,11.88845 -0.72453,17.84065 -1.7129,20.09571 -0.77237,1.7622 -3.34807,5.17601 -5.72265,7.58594 -3.03032,3.07541 -4.23288,5.06843 -4.0332,6.68554 l 0.28515,2.30469 27.92578,-0.0527 c 25.50736,-0.0488 28.02367,-0.20578 29.0625,-1.8086 0.84622,-1.30564 0.82254,-2.20359 -0.0918,-3.50586 -0.67583,-0.96264 -2.1058,-3.0996 -3.17774,-4.75 -1.07191,-1.65036 -2.58787,-5.25328 -3.36914,-8.00586 -0.78127,-2.75258 -1.83138,-9.51042 -2.33398,-15.01757 -0.56128,-6.15545 -0.5214,-19.66021 0.10351,-35.05274 0.68653,-16.91129 1.54417,-27.15208 2.64258,-31.55078 0.89448,-3.58199 2.44546,-8.0917 3.44727,-10.02148 1.00181,-1.92976 2.64933,-4.38342 3.66211,-5.45313 1.01278,-1.0697 1.85614,-2.70638 1.87304,-3.63672 0.017,-0.93036 -0.57815,-2.20427 -1.32226,-2.83008 -0.95687,-0.80472 -9.37933,-1.04406 -28.76953,-0.81836 l -27.41602,0.31836 -0.38086,2.37891 c -0.26929,1.68676 0.7574,3.57973 3.52734,6.50391 2.14856,2.26819 4.60532,5.56499 5.45899,7.32617 1.26805,2.61609 1.48593,6.78517 1.19336,22.78125 l -0.35742,19.58008 -17.65821,0.0332 -17.6582,0.0332 0.91797,-12.77148 c 0.50419,-7.02383 1.41576,-15.47519 2.02734,-18.78125 0.61158,-3.30606 1.86345,-8.26569 2.78125,-11.02149 0.91778,-2.75584 2.7974,-6.19995 4.17578,-7.65429 1.72727,-1.82251 2.42029,-3.53686 2.23047,-5.51368 l -0.27539,-2.86718 -28.28125,-0.21289 z m -63.83203,0.16406 -34.29101,0.0547 -0.0527,2.82422 c -0.036,1.96917 1.24271,4.19994 4.2168,7.35937 2.85859,3.03676 4.62143,6.04894 5.33984,9.125 0.71862,3.07694 0.83745,17.24848 0.36329,42.95703 -0.44881,24.33534 -1.12772,39.78839 -1.85743,42.25586 -0.63698,2.15404 -3.16165,6.0038 -5.6582,8.62696 -2.98075,3.13195 -4.52424,5.63452 -4.55664,7.38672 l -0.0488,2.65039 26.45117,-0.0508 c 14.5481,-0.0278 27.16772,-0.32414 28.04493,-0.66015 0.87717,-0.33602 1.61401,-1.62103 1.63671,-2.85352 0.0226,-1.23248 -1.06282,-3.54666 -2.41015,-5.14453 -1.34729,-1.5978 -3.06801,-5.17396 -3.82422,-7.94531 -0.75623,-2.77135 -1.79644,-9.30265 -2.3125,-14.51563 -0.51634,-5.21302 -0.75394,-11.50721 -0.5293,-13.98632 l 0.40821,-4.50782 13.02734,-0.63476 c 7.69558,-0.37502 15.15068,-1.31616 18.2168,-2.29883 2.85478,-0.915 7.90783,-3.64158 11.22851,-6.06055 3.32073,-2.41903 6.9668,-5.68829 8.10352,-7.26562 1.1367,-1.57734 2.88123,-4.40565 3.875,-6.28516 0.99374,-1.87953 2.20301,-5.93888 2.6875,-9.01953 0.48442,-3.08061 0.51168,-8.24566 0.0605,-11.47852 -0.45107,-3.23282 -1.71813,-7.70035 -2.81445,-9.92773 -1.09635,-2.22742 -4.23982,-6.27504 -6.98633,-8.99414 -2.74649,-2.71914 -7.03516,-5.84166 -9.52929,-6.93945 -2.49413,-1.09778 -6.77602,-2.61089 -9.51563,-3.36133 -3.7662,-1.03165 -13.34489,-1.35125 -39.27344,-1.31055 z m 253.55664,0.0254 c -8.54036,0.0317 -13.76149,0.56424 -18.05468,1.83789 -3.32201,0.98552 -9.43339,3.46541 -13.58008,5.51172 -5.34897,2.6396 -9.77719,5.9068 -15.24024,11.24609 -4.56968,4.46619 -9.02026,9.97136 -10.94921,13.54102 -1.78775,3.3083 -4.25229,9.10643 -5.47657,12.88477 -1.52238,4.69841 -2.27674,9.58731 -2.38476,15.46484 -0.0865,4.72659 0.52341,11.55019 1.35547,15.16406 0.83209,3.6139 2.94239,9.49727 4.6875,13.07422 1.74511,3.57697 4.19674,7.89563 5.44922,9.59766 1.25245,1.70206 5.15947,5.6491 8.68164,8.77148 3.52222,3.12234 9.12162,7.01424 12.44336,8.64844 3.32173,1.63418 9.36342,3.86471 13.42578,4.95703 6.09509,1.63893 9.66119,1.91274 20.4082,1.56641 9.80149,-0.31587 14.62518,-0.95106 19.49609,-2.56836 3.55966,-1.18189 9.00937,-3.58061 12.11133,-5.33008 3.10195,-1.74948 8.57256,-5.91617 12.15625,-9.25977 3.58371,-3.34364 8.47573,-9.01277 10.87109,-12.59765 2.65179,-3.9686 5.29026,-9.65223 6.74415,-14.53321 1.76026,-5.90953 2.40975,-10.51754 2.47265,-17.53125 0.0559,-6.22074 -0.5475,-11.84133 -1.74219,-16.23828 -1.00497,-3.69862 -3.05793,-9.10344 -4.5625,-12.00976 -1.50454,-2.90632 -6.27451,-8.89207 -10.59961,-13.30078 -5.77422,-5.88593 -9.84087,-9.00398 -15.30468,-11.73438 -4.09256,-2.04514 -10.35619,-4.50173 -13.91797,-5.46094 -4.51169,-1.21498 -10.11933,-1.73237 -18.49024,-1.70117 z m -364.14257,0.17578 -21.39649,0.041 c -0.76183,0.87828 -1.54164,1.74101 -2.3125,2.61133 1.52412,-0.32678 11.26781,-0.61985 24.28906,-0.63672 13.81285,-0.0181 25.72414,0.35806 26.46875,0.83398 1.08862,0.69582 0.91092,1.30151 -0.9082,3.0918 -1.24424,1.22459 -3.19455,4.2522 -4.33398,6.72851 -1.13944,2.4763 -2.7904,8.6301 -3.66797,13.67579 -0.87759,5.04571 -2.01617,16.83634 -2.53125,26.20117 -0.58151,10.57444 -0.56965,22.31308 0.0332,30.97461 0.53388,7.67073 1.74957,17.22388 2.70117,21.23047 0.95159,4.00663 2.49767,8.48792 3.43555,9.95898 1.66172,2.60642 1.90253,2.66062 9.45703,2.12891 5.90573,-0.41568 8.988,-1.21389 12.94336,-3.35352 2.85554,-1.54466 8.05938,-5.54301 11.56445,-8.88476 3.5051,-3.34174 8.25808,-8.33138 10.56055,-11.08985 2.30251,-2.75848 4.50014,-4.69829 4.88477,-4.31054 0.38466,0.38771 -0.42618,6.92245 -1.80274,14.52343 -1.45933,8.0582 -3.15465,14.55251 -4.0664,15.57617 -1.44659,1.62422 -5.00154,1.76255 -47.4668,1.84375 -25.24609,0.0483 -45.89472,-0.27407 -45.88672,-0.71679 0.008,-0.44283 1.65886,-2.36165 3.66797,-4.26367 2.00911,-1.90205 4.42805,-4.81252 5.375,-6.4668 1.51138,-2.64018 1.85231,-8.02493 2.79101,-44.07031 0.5884,-22.58448 0.82493,-43.42642 0.5254,-46.31641 -0.46305,-4.46762 -1.26479,-6.05878 -5.35352,-10.61719 -1.95043,-2.17447 -3.13157,-3.87492 -3.65625,-4.9375 -0.66583,0.74582 -1.31904,1.50308 -1.99023,2.24414 0.56054,0.89299 1.22768,1.81035 2.18359,2.75391 1.89228,1.86783 4.20443,4.83885 5.13672,6.60156 1.51859,2.87125 1.65356,7.37595 1.29101,43.26563 -0.2716,26.88872 -0.80277,41.73389 -1.61328,45.15429 -0.92497,3.90338 -2.26731,6.13265 -5.73828,9.52539 -3.14678,3.07588 -4.55266,5.27091 -4.60156,7.1836 l -0.0723,2.7539 47.81055,-0.10546 c 26.2953,-0.0587 48.33193,-0.4398 48.9707,-0.84571 0.63877,-0.40589 1.65454,-2.54168 2.25782,-4.74609 0.60325,-2.20441 1.92517,-8.57983 2.9375,-14.16797 1.01229,-5.58816 1.72327,-11.67394 1.58007,-13.52344 -0.19434,-2.51083 -0.78548,-3.43725 -2.33398,-3.65625 -1.53578,-0.21723 -3.718,1.6548 -8.41016,7.21485 -3.48492,4.1295 -8.72843,9.51305 -11.65429,11.96289 -2.92586,2.44983 -7.24836,5.42114 -9.60352,6.60351 -2.35521,1.18239 -6.99075,2.43908 -10.30273,2.79102 L 210.11328,350 l -2.37305,-5.39453 c -1.30467,-2.9672 -3.05276,-9.89969 -3.88476,-15.40625 -1.09299,-7.23364 -1.41804,-16.266 -1.17188,-32.54688 0.26073,-17.2435 0.80192,-24.98715 2.30664,-32.98242 1.08148,-5.74658 2.92657,-12.59058 4.09961,-15.20898 1.17305,-2.61839 3.00637,-5.53929 4.07422,-6.49219 1.06785,-0.95292 1.95431,-2.47472 1.97071,-3.38086 0.0166,-0.90613 -0.49971,-2.18596 -1.14844,-2.8457 -0.86082,-0.87543 -8.69957,-1.18479 -29.01367,-1.14649 z m -97.408207,0.51953 c 0.450213,0.79812 0.846748,1.63425 1.207031,2.49219 1.657553,0.32104 3.1828,0.72567 4.871094,1.36133 4.339455,1.63384 7.425142,3.84444 12.212892,8.74805 3.79268,3.88445 7.45417,8.86446 8.97656,12.20703 0.28571,0.62726 1.22794,3.91697 1.67969,5.15429 0.96796,-0.12848 1.93923,-0.2318 2.91211,-0.31054 -0.89084,-2.44819 -1.6983,-4.9746 -2.50781,-6.75196 -1.55368,-3.4112 -5.21798,-8.42728 -9.02149,-12.3496 -4.84943,-5.00087 -7.81625,-7.13044 -12.214842,-8.76758 -2.695031,-1.00307 -4.579887,-1.53527 -8.115235,-1.78321 z m -26.65625,0.0645 -11.414062,0.17578 -0.386719,3.86914 c -0.133098,1.32647 -0.07744,2.38026 0.140625,3.3125 0.630583,-0.40743 1.262654,-0.81155 1.894531,-1.2168 -0.148369,-0.34341 -0.240109,-0.81431 -0.230469,-1.3457 0.02029,-1.10946 0.967232,-2.1364 2.298829,-2.49414 0.288862,-0.0776 3.311573,-0.0801 4.279296,-0.15039 1.141221,-0.71365 2.272739,-1.44415 3.417969,-2.15039 z m 808.386717,0.12109 c 26.97852,-0.0425 37.5077,0.28126 41.2168,1.26758 2.74002,0.72867 6.45314,2.09007 8.25,3.02539 1.79696,0.93533 4.11937,3.14289 5.16211,4.9043 1.04266,1.76142 1.87425,4.4637 1.84765,6.00586 -0.0262,1.54212 -0.72265,4.06839 -1.54882,5.61328 -0.82608,1.54489 -2.64865,3.55414 -4.05078,4.46484 -1.45412,0.94448 -4.57118,1.65906 -7.25391,1.66406 -3.18822,0.006 -6.04056,-0.78081 -8.85547,-2.44336 -2.65514,-1.56819 -5.60464,-4.74481 -8.18164,-8.81054 -2.58096,-4.07197 -5.45499,-7.16525 -7.99219,-8.60157 -2.63899,-1.49389 -5.21991,-2.13587 -7.72851,-1.92382 l -3.76563,0.31836 -1.53906,15.52539 c -0.84646,8.53922 -1.50755,20.03294 -1.46875,25.54101 l 0.0703,10.01367 5.5,0.3125 c 3.02557,0.17141 7.19441,-0.19231 9.26367,-0.80664 2.92289,-0.86766 4.69276,-2.44978 7.92774,-7.0957 2.29028,-3.28921 4.54835,-5.98142 5.01953,-5.98242 0.47121,-8.9e-4 1.11721,0.71136 1.43555,1.58203 0.31842,0.87065 0.50787,5.26436 0.42187,9.76367 -0.0863,4.49932 -0.49882,11.22263 -0.91797,14.94141 -0.43925,3.89774 -1.23136,6.757 -1.86914,6.75 -0.6086,-0.006 -2.60567,-2.46642 -4.4375,-5.46875 -1.98968,-3.26099 -4.61912,-6.0725 -6.53125,-6.98438 -1.86851,-0.89106 -5.94974,-1.52167 -9.80664,-1.51367 l -6.60742,0.01 -0.18164,9.76562 c -0.0999,5.37063 0.18031,15.84806 0.62305,23.28321 0.44271,7.43515 1.00956,15.02701 1.25976,16.87109 l 0.45508,3.35351 12.70898,-0.40625 c 10.65234,-0.34064 13.38646,-0.76261 16.89649,-2.60156 2.30325,-1.20673 5.88308,-4.12826 7.95508,-6.49219 2.07193,-2.36393 5.20085,-6.44083 6.95117,-9.06054 1.75047,-2.61972 3.78233,-4.76363 4.51562,-4.76563 1.0358,-0.002 1.28289,2.66335 1.11328,11.94336 -0.17436,9.52525 -0.54285,12.26621 -1.82031,13.52344 v 0.002 c -1.40998,1.38768 -7.1177,1.58677 -47.58789,1.66406 -25.29213,0.0484 -45.9787,-0.28206 -45.9707,-0.73437 0.008,-0.45229 2.01,-2.86978 4.44922,-5.37305 2.5448,-2.61157 4.74058,-5.94763 5.15039,-7.82617 0.39281,-1.80064 1.0719,-22.86561 1.50976,-46.8125 0.69456,-37.96117 0.59824,-43.97564 -0.7539,-46.9375 -0.85298,-1.8684 -3.07583,-4.75421 -4.93946,-6.41406 -1.8636,-1.65979 -3.10534,-3.4639 -2.75976,-4.00781 0.39457,-0.6209 14.11255,-1.01078 36.86523,-1.04688 z m -152.91797,0.28125 c 9.20249,-0.0176 11.42695,0.25494 11.40625,1.39844 -0.0143,0.78131 -1.62073,2.39827 -3.57031,3.59375 -1.94963,1.19544 -4.23681,3.13968 -5.08398,4.32031 -1.31646,1.83501 -1.66852,9.10228 -2.41797,50.0625 -0.55821,30.50048 -0.51932,48.6047 0.10547,49.8125 0.53981,1.04361 3.01622,3.31198 5.5039,5.04102 2.93073,2.03699 4.17386,3.48867 3.53125,4.12109 -0.5948,0.58566 -8.14925,0.85514 -18.875,0.67578 -17.46122,-0.29193 -17.99381,-0.36312 -22.55664,-3.0664 -2.57025,-1.52274 -5.90746,-4.67097 -7.41601,-6.9961 -1.50852,-2.32515 -6.48449,-12.33238 -11.0586,-22.23828 -4.57414,-9.90589 -11.0989,-24.09005 -14.49804,-31.51953 -3.39917,-7.42949 -8.52235,-18.66019 -11.38477,-24.95703 -3.12586,-6.87643 -5.35882,-10.71285 -5.5918,-9.60742 -0.31201,1.48052 -0.55511,1.56602 -1.24609,0.44336 -0.50485,-0.82008 -1.19692,16.69924 -1.67773,42.48632 -0.51838,27.80182 -0.45778,44.57907 0.16406,45.78125 0.53981,1.04358 2.98563,3.2894 5.43554,4.99219 2.4499,1.70278 4.18607,3.51994 3.85743,4.03711 -0.32859,0.51719 -6.20367,0.95069 -13.05469,0.96289 -9.9452,0.019 -12.45154,-0.25583 -12.43164,-1.36328 0.0139,-0.7629 1.05254,-2.06167 2.30664,-2.88672 1.25407,-0.82508 3.53974,-2.66143 5.08008,-4.08203 l 2.80078,-2.58398 0.88867,-48.6211 c 0.82959,-45.33897 0.77126,-48.74196 -0.86523,-50.40625 -0.96528,-0.98164 -3.40045,-3.05479 -5.41211,-4.60742 -2.01164,-1.55257 -3.40322,-3.22472 -3.0918,-3.71484 0.31142,-0.49013 7.2635,-0.90267 15.44922,-0.91797 8.18574,-0.0157 17.19552,0.50295 20.01953,1.15234 3.47875,0.79994 6.56149,2.45503 9.5625,5.13477 3.5223,3.14519 5.77724,6.84483 11.00586,18.0664 3.61641,7.76144 8.94877,19.29033 11.84961,25.61914 2.90083,6.32882 7.45457,16.23524 10.12109,22.01368 2.66652,5.77846 6.59097,14.44617 8.7207,19.26171 2.50384,5.66137 4.43641,8.75396 5.46876,8.75196 1.4415,-0.003 1.64954,-4.34152 2.13476,-44.69141 l 0.53711,-44.6875 -5.2832,-4.72461 c -4.27571,-3.82373 -4.95769,-4.8509 -3.57422,-5.38086 0.94032,-0.36023 6.85284,-0.66448 13.14062,-0.67578 z m 64.99414,0.19727 c 4.95101,0.27215 11.69092,1.22669 14.97852,2.12109 3.28763,0.89442 8.37413,2.83762 11.30273,4.31836 2.92863,1.48073 6.99397,4.38174 9.03321,6.44727 2.03927,2.06557 4.37179,5.21529 5.18359,7 0.81177,1.78471 1.73763,4.3832 2.05859,5.77343 0.40626,1.75963 -0.14193,3.58588 -1.80468,6.01172 -1.31361,1.91658 -3.97025,4.27542 -5.9043,5.24219 -2.08013,1.03981 -5.7824,1.76348 -9.0625,1.77148 -3.77888,0.008 -6.93531,-0.70447 -9.91211,-2.23437 -2.40251,-1.23475 -5.61146,-3.8442 -7.13086,-5.79883 -2.35089,-3.02433 -2.83575,-4.79164 -3.25195,-11.86914 -0.39853,-6.7777 -0.92972,-8.85361 -2.8711,-11.20898 -2.03822,-2.47281 -3.10018,-2.88986 -7.35546,-2.88086 -4.32554,0.008 -5.36588,0.43208 -7.98047,3.24414 -2.3865,2.56672 -3.02249,4.15424 -3.08789,7.70117 -0.0451,2.46574 0.80826,6.37697 1.90429,8.72851 1.09239,2.34367 4.75317,6.87426 8.13672,10.06641 3.38354,3.19211 9.46224,8.04817 13.50781,10.79102 4.0456,2.74287 10.68829,7.51458 14.76172,10.60547 4.07345,3.09088 9.74397,8.14691 12.60157,11.23437 2.85759,3.08745 6.0335,7.53332 7.05664,9.88086 1.02317,2.34757 1.83162,6.43537 1.79492,9.08203 -0.0379,2.76008 -0.97604,6.732 -2.19922,9.31641 -1.17302,2.47822 -3.8155,6.33558 -5.87305,8.57226 -2.05752,2.23673 -6.0528,5.5327 -8.87695,7.32422 -2.8242,1.79153 -7.61507,4.09785 -10.64648,5.125 -3.92805,1.33098 -8.53245,1.8877 -16.0254,1.9375 -9.37348,0.0621 -11.57927,-0.2926 -20.34179,-3.27344 -7.38599,-2.51251 -10.78088,-3.18931 -13.66016,-2.72461 -2.10731,0.34009 -6.31779,1.97413 -9.35547,3.63086 -3.03768,1.65671 -5.79136,3.01106 -6.11914,3.01172 -0.32777,6.4e-4 -0.41773,-9.68834 -0.20117,-21.53125 0.32968,-18.01712 0.62851,-21.53315 1.82813,-21.53515 0.78849,-0.002 4.07268,3.74415 7.29882,8.32422 3.22614,4.58003 9.09803,11.59608 13.04883,15.58984 3.95081,3.99374 9.86003,8.74277 13.13086,10.55469 3.27082,1.81196 7.96902,3.54583 10.44141,3.85156 2.49239,0.30824 6.06627,0.0148 8.02148,-0.6582 2.39479,-0.82426 4.10941,-2.33996 5.3418,-4.72266 0.99814,-1.92975 1.84652,-5.25814 1.88672,-7.39649 0.0403,-2.15163 -0.80164,-5.34404 -1.88477,-7.14843 -1.07642,-1.79323 -3.83684,-4.80257 -6.13476,-6.6875 -2.29788,-1.88497 -10.62912,-7.43126 -18.51368,-12.32617 -8.12951,-5.04699 -17.17181,-11.62 -20.88867,-15.18164 -4.28943,-4.11033 -7.46364,-8.26097 -9.18359,-12.01368 -1.57082,-3.4273 -2.78228,-8.1511 -3.01172,-11.74218 -0.24711,-3.86765 0.20111,-7.86611 1.25977,-11.22266 0.90449,-2.86784 2.71862,-6.75124 4.02929,-8.62891 1.31069,-1.87766 3.80424,-4.59449 5.54297,-6.03711 1.73874,-1.44263 5.5004,-3.792 8.35938,-5.2207 2.85898,-1.42869 8.47663,-3.29822 12.48242,-4.1543 4.93619,-1.05466 10.18421,-1.39589 16.28515,-1.06054 z m -322.28125,0.29297 c 21.19331,-0.0405 24.55562,0.16215 25.04688,1.50585 0.31455,0.86043 -0.34328,2.53477 -1.47656,3.75782 -1.12438,1.21344 -2.53832,3.13651 -3.14258,4.27344 -0.60422,1.13693 -1.91349,5.19607 -2.9082,9.01953 -1.36289,5.23856 -2.05411,13.49189 -2.80469,33.49218 -0.60804,16.202 -0.63941,30.46828 -0.0801,36.6211 0.50395,5.54357 1.80009,13.1166 2.87891,16.82812 1.07879,3.71159 2.85374,7.65552 3.94531,8.76563 1.09156,1.11009 1.72708,2.66108 1.41211,3.44531 -0.47448,1.18139 -4.94559,1.43451 -26.07617,1.47461 -14.02722,0.0269 -25.71189,-0.29801 -25.9668,-0.72266 -0.2549,-0.42466 1.57519,-2.78539 4.06836,-5.24414 2.49318,-2.45874 5.02346,-6.05836 5.62305,-8 0.62754,-2.03233 1.10585,-11.39251 1.12695,-22.05859 l 0.0371,-18.52735 -19.02344,0.0371 -19.02344,0.0371 -0.45508,6.50977 c -0.24989,3.58077 -0.0246,11.24088 0.5,17.02344 0.52456,5.78254 1.62134,12.9916 2.4375,16.01953 0.81616,3.02792 2.76482,7.19651 4.33008,9.26367 1.56526,2.06717 2.56037,4.20703 2.21289,4.75391 -0.39138,0.61591 -10.51414,1.01208 -26.60351,1.04296 -20.76513,0.0397 -25.96782,-0.2132 -25.94922,-1.26367 0.0132,-0.72265 1.38872,-2.31359 3.05859,-3.53515 1.66989,-1.22162 3.97362,-3.99765 5.11914,-6.16797 1.99399,-3.7779 2.11855,-5.86164 2.90625,-48.91406 l 0.82227,-44.96875 -2.44141,-3.69141 c -1.3427,-2.0313 -3.6179,-4.72167 -5.05664,-5.97656 -1.50409,-1.31189 -2.30131,-2.77629 -1.875,-3.44727 0.5324,-0.83783 7.90951,-1.1821 26.15625,-1.2168 17.0301,-0.0326 25.62641,0.30738 26.0586,1.02735 0.35471,0.59091 -0.27013,2.05517 -1.38672,3.25586 -1.11658,1.20071 -2.71636,3.53731 -3.55664,5.1914 -0.84023,1.65404 -2.05228,5.03573 -2.69141,7.51563 -0.63916,2.47991 -1.75116,9.01781 -2.47266,14.52734 -0.72152,5.50953 -1.24768,14.07213 -1.16796,19.0293 l 0.14648,9.01367 19.02344,-0.0371 19.02343,-0.0371 0.67579,-20.53125 c 0.4349,-13.186 0.29953,-21.91838 -0.38086,-24.41015 -0.58268,-2.13394 -3.02561,-6.02138 -5.42774,-8.63672 -3.52342,-3.83617 -4.05476,-4.87369 -2.74609,-5.375 0.8922,-0.34177 12.6395,-0.64392 26.10351,-0.66992 z m -163.19922,0.3125 c 23.73929,-0.0454 32.60223,0.27973 36.60352,1.33984 2.90379,0.76936 6.17389,1.74001 7.26758,2.1582 1.09367,0.41822 4.2918,2.22788 7.10547,4.02149 2.8137,1.79361 6.84403,5.65314 8.95703,8.57617 2.11302,2.92305 4.38122,7.4641 5.03906,10.08984 0.69117,2.75887 0.93515,7.41929 0.57813,11.04297 -0.35777,3.63078 -1.6085,8.15892 -2.96875,10.75391 -1.29205,2.46493 -4.61734,6.63452 -7.39063,9.26758 -2.77328,2.63307 -6.93818,5.75333 -9.25586,6.93359 -2.31764,1.18029 -5.79911,2.58899 -7.73633,3.13086 -1.93725,0.54188 -9.38568,1.27504 -16.55078,1.6289 l -13.02734,0.64454 -0.44141,6.50976 c -0.24334,3.58072 -0.0134,10.79171 0.51172,16.02344 0.52507,5.23174 1.57229,11.86316 2.32617,14.73633 0.75383,2.87317 2.4579,6.41793 3.78711,7.8789 1.32921,1.46093 2.1657,3.05111 1.85938,3.53321 -0.30631,0.48209 -12.01935,0.89858 -26.0293,0.92578 -14.00994,0.0268 -25.46503,-0.3131 -25.45703,-0.75586 0.008,-0.44276 1.65884,-2.36162 3.66797,-4.26367 2.00911,-1.90202 4.42611,-4.81256 5.37305,-6.4668 1.51301,-2.6431 1.85204,-8.02751 2.7832,-44.41406 0.72895,-28.51964 0.7295,-43.13714 0.004,-46.97071 -0.82044,-4.33365 -2.00771,-6.60452 -5.36132,-10.25586 -2.36893,-2.57911 -4.00503,-4.98515 -3.63672,-5.34765 0.36833,-0.36247 14.76432,-0.6884 31.99218,-0.7207 z m 253.6875,0.0664 c 5.23132,3.2e-4 11.97863,0.58632 14.99415,1.30274 3.01557,0.71638 9.22273,3.15705 13.79296,5.42382 4.57028,2.26675 10.83274,6.38156 13.91602,9.14258 3.08329,2.76104 6.93821,7.04594 8.56641,9.52149 1.62819,2.47556 3.86468,6.07596 4.9707,8.00195 1.10604,1.926 2.88323,6.87054 3.94922,10.98828 1.15133,4.44741 1.88243,10.47886 1.80273,14.85547 -0.0833,4.5504 -1.0217,10.30382 -2.45508,15.04688 -1.29743,4.29336 -4.213,10.57226 -6.61328,14.24023 -2.36131,3.60844 -6.76062,8.94955 -9.77539,11.87109 -3.01479,2.92156 -8.53923,7.08615 -12.27734,9.25391 -3.73813,2.16777 -9.65689,4.86969 -13.15234,6.00391 -4.21727,1.36844 -9.89437,2.19389 -16.875,2.45507 -5.78594,0.21658 -11.64348,0.19284 -13.01563,-0.0547 -1.3721,-0.24746 -4.51291,-0.91788 -6.98047,-1.48829 -2.46755,-0.57038 -7.61068,-2.62973 -11.42969,-4.57617 -3.81906,-1.94645 -9.6435,-5.84647 -12.9414,-8.66797 -3.2979,-2.82149 -7.43863,-7.03958 -9.20117,-9.37304 -1.76257,-2.33349 -4.40579,-6.83542 -5.875,-10.00391 -1.46917,-3.16849 -3.34446,-8.71812 -4.16797,-12.33203 -0.82355,-3.61388 -1.45655,-8.82457 -1.40625,-11.58008 0.0504,-2.75552 0.62833,-7.68548 1.28515,-10.95508 0.65679,-3.2696 3.00395,-9.67728 5.21485,-14.24023 3.2432,-6.69343 5.5778,-9.81298 12.08593,-16.14258 5.8023,-5.64316 10.16177,-8.8689 15.53125,-11.49414 4.10565,-2.00732 10.4087,-4.44963 14.00586,-5.42578 4.12677,-1.11988 10.04935,-1.77381 16.05078,-1.77344 z m -1.36328,6.71094 c -2.70799,0.26495 -6.14533,1.37779 -7.63867,2.47266 -1.49333,1.09488 -4.1625,3.83347 -5.92969,6.08593 -1.76718,2.25244 -4.42151,7.17401 -5.89843,10.93555 -1.47689,3.76154 -3.29779,8.86756 -4.04688,11.34766 -0.84901,2.81093 -1.48781,10.73403 -1.69531,21.03515 -0.20794,10.31633 0.12468,18.59407 0.88476,22.03125 0.66967,3.02821 1.89108,7.30615 2.71485,9.50781 0.82376,2.20171 2.11659,5.48584 2.87109,7.29688 0.7545,1.81104 2.77546,4.92392 4.49219,6.91797 1.7167,1.99404 4.45814,4.44655 6.0918,5.45117 1.85222,1.13905 4.89775,1.82331 8.08984,1.82031 4.20823,-0.005 5.82011,-0.55446 9.06641,-3.09375 2.17176,-1.69885 5.4702,-5.42423 7.33008,-8.27734 1.85987,-2.85312 4.63759,-8.79368 6.17187,-13.20313 2.4434,-7.02225 2.87928,-10.06865 3.51563,-24.54687 0.62202,-14.15166 0.45644,-17.76802 -1.15821,-25.13281 -1.03727,-4.73124 -2.94181,-11.09027 -4.23242,-14.13282 -1.29062,-3.04256 -4.01836,-7.41684 -6.06055,-9.7207 -2.0422,-2.30382 -5.04833,-4.88368 -6.67968,-5.73242 -1.9836,-1.03188 -4.59599,-1.38473 -7.88868,-1.0625 z m -235.95117,0.49023 c -0.67272,0.14178 -1.26907,0.44221 -1.71875,0.88477 -0.80007,0.78741 -2.20311,4.79151 -3.11914,8.89844 -0.91601,4.10693 -2.08552,15.65541 -2.59961,25.66211 -0.5134,10.00671 -0.67436,18.90706 -0.35547,19.77929 0.3189,0.87227 1.15753,1.58122 1.86328,1.57422 0.70573,-0.007 3.56498,-1.07008 6.35352,-2.36328 2.7885,-1.2932 6.56798,-3.82745 8.40039,-5.63086 1.83238,-1.80337 4.23366,-4.98774 5.33594,-7.07617 1.1023,-2.08843 2.41691,-6.20827 2.91992,-9.1543 0.50284,-2.94606 0.60453,-7.73529 0.22656,-10.64453 -0.37796,-2.90921 -1.57644,-7.09508 -2.66211,-9.30078 -1.08565,-2.20572 -3.78511,-5.79779 -6,-7.98242 -2.21489,-2.18462 -5.12465,-4.2461 -6.46679,-4.58203 -0.75435,-0.18881 -1.50502,-0.20615 -2.17774,-0.0645 z m 237.20508,1.90235 c 2.64036,0.0642 5.13436,1.02238 7.63672,2.93164 2.04357,1.55921 4.2606,3.52761 4.92773,4.375 0.66716,0.84735 2.49935,4.31241 4.07032,7.70117 1.57095,3.38878 3.71052,9.77029 4.75586,14.17969 1.39615,5.88913 1.84361,11.21125 1.68164,20.05273 -0.12305,6.72612 -0.92399,15.11274 -1.81446,19.00977 -0.87644,3.83551 -2.51606,9.28977 -3.64258,12.12109 -1.12651,2.83133 -3.49226,7.34045 -5.25781,10.01953 -1.76557,2.67908 -5.00991,6.0517 -7.20898,7.49414 -2.19908,1.44239 -5.24555,2.61372 -6.77149,2.60352 -1.52597,-0.01 -4.33534,-0.93263 -6.24218,-2.05274 -1.90683,-1.12009 -4.78454,-3.91675 -6.39454,-6.21289 -1.60997,-2.29616 -3.37796,-5.07997 -3.92968,-6.1875 -0.55173,-1.10753 -1.69148,-4.04051 -2.53321,-6.51757 -0.84172,-2.47706 -1.99197,-6.63316 -2.55468,-9.23438 -0.56273,-2.6012 -1.21009,-9.35809 -1.43946,-15.01758 -0.23409,-5.77622 0.12828,-13.6883 0.82617,-18.03711 0.68378,-4.26096 2.44467,-11.02586 3.91211,-15.03125 1.46743,-4.00539 3.93432,-9.26928 5.48243,-11.69726 1.54807,-2.428 4.56086,-5.80406 6.69531,-7.50391 2.94864,-2.34823 4.82202,-3.06829 7.80078,-2.99609 z m -235.89648,0.8125 c 0.71535,-0.001 3.16898,1.83885 5.45117,4.08984 2.28217,2.251 5.24541,6.58662 6.58594,9.63477 2.13526,4.85532 2.35171,6.45147 1.74804,12.88086 -0.58323,6.21155 -1.2459,8.15729 -4.3164,12.66601 -1.99526,2.92979 -4.96045,6.30218 -6.58985,7.49414 -1.62936,1.19194 -4.6139,2.85492 -6.63086,3.69531 l -3.66601,1.52735 0.22656,-12.2168 c 0.1245,-6.71963 0.7741,-16.27574 1.44531,-21.23437 0.67119,-4.95859 1.9472,-11.15734 2.83399,-13.77539 0.8868,-2.61806 2.19672,-4.76072 2.91211,-4.76172 z m -256.535161,6.98047 c -0.693905,0.45128 -1.383065,0.90983 -2.078125,1.35937 0.206055,0.92261 0.652102,2.10354 0.642578,2.63086 -0.02236,1.22171 -1.004961,5.743 -2.183593,10.04688 -1.178626,4.30394 -3.63669,12.3804 -5.460938,17.94726 -1.824268,5.56689 -4.678356,14.10526 -6.341797,18.97461 -1.663454,4.86939 -3.544256,10.73175 -4.18164,13.02734 -0.637393,2.29562 -3.332769,10.71127 -5.988282,18.70313 -1.283042,3.8614 -2.254891,6.76056 -3.552734,10.65234 1.316617,-1.40632 2.645326,-2.82282 4.027344,-4.29492 3.42809,-10.39237 7.479544,-22.68827 12.11914,-36.92578 6.106601,-18.73936 11.700595,-36.75886 12.429688,-40.04297 0.729129,-3.28414 1.106082,-8.14571 0.839844,-10.80469 -0.03703,-0.36982 -0.201273,-0.86157 -0.271485,-1.27343 z m 9.986329,9.01367 c -1.543025,0.003 -2.437134,1.26849 -3.892579,5.51562 -1.038855,3.03146 -3.81188,11.5986 -6.164062,19.03907 -2.352194,7.44052 -5.161057,16.23408 -6.240235,19.54101 -1.079174,3.30696 -3.674979,11.27572 -5.769531,17.70703 -0.971944,2.98434 -1.101737,3.83716 -1.78125,6.16016 1.284855,-1.37979 2.573449,-2.7561 3.857422,-4.13672 0.653203,-2.15259 0.669391,-2.45691 1.480469,-5.01758 2.38915,-7.54282 7.437053,-23.17841 11.216797,-34.74414 3.77975,-11.5657 7.064279,-21.2184 7.300781,-21.45117 0.236511,-0.23277 2.348596,3.81174 4.691406,8.98828 0.838319,1.8523 2.093617,5.79059 3.226563,8.74023 0.548554,-0.45159 1.100959,-0.89807 1.65625,-1.33984 0.196483,-0.31397 0.385296,-0.63229 0.580078,-0.94726 -1.347867,-3.44377 -2.711604,-6.8144 -3.744141,-8.94532 -3.35336,-6.92055 -4.897458,-9.11137 -6.417968,-9.10937 z m 56.703122,15.77734 c -0.72114,0.80549 -1.45371,1.60003 -2.17187,2.40821 0.50603,1.5228 0.98803,2.79592 1.59375,4.89062 3.16003,10.92794 6.97995,24.1471 8.48828,29.37695 1.50827,5.22984 5.74624,20.09413 9.41601,33.03125 3.66981,12.9371 7.48614,25.38622 8.48243,27.66407 0.99627,2.27792 3.15418,5.70163 4.79492,7.60742 1.64074,1.90577 4.54819,4.54168 6.46094,5.85742 1.91273,1.31574 3.46662,3.18055 3.45312,4.14453 -0.0236,1.63704 -2.40817,1.75787 -36.10156,1.82227 -31.575571,0.0604 -36.146972,-0.12439 -36.640627,-1.47461 -0.3102,-0.84847 0.439102,-4.04556 1.664063,-7.10352 1.831665,-4.57255 2.264622,-7.72185 2.441406,-17.73828 0.117786,-6.69867 -0.02904,-14.55163 -0.324219,-17.45117 l -0.535156,-5.27149 -20.703125,0.23243 c -0.35778,0.67563 -0.73344,1.34145 -1.107422,2.00781 l 19.890625,-0.23633 0.576172,6.48242 c 0.316563,3.56572 0.300138,11.34821 -0.03516,17.29297 -0.487686,8.64695 -1.066146,11.65269 -2.890625,15.0293 -1.254323,2.3214 -2.295304,5.08445 -2.314454,6.14062 -0.01932,1.05615 0.571097,2.43114 1.3125,3.05469 0.965408,0.81178 12.115648,1.03691 39.283208,0.79687 l 37.93359,-0.33398 0.36133,-2.69141 c 0.29412,-2.19926 -0.52214,-3.39009 -4.45313,-6.50195 -2.64643,-2.09501 -6.14453,-5.61202 -7.77344,-7.81445 -1.62889,-2.20243 -3.4517,-5.57755 -4.05273,-7.50195 -0.60101,-1.92442 -2.54347,-8.45418 -4.31445,-14.50977 -1.77099,-6.05557 -6.2367,-21.59417 -9.92578,-34.53125 -3.68909,-12.93704 -8.19609,-28.70231 -10.01368,-35.0332 -0.98682,-3.43729 -1.87591,-6.48315 -2.79492,-9.64649 z M 80.75,290.27148 c -0.637276,0.97749 -1.280431,1.95176 -1.925781,2.92383 0.656318,1.9205 1.359632,3.43787 1.916015,5.19336 0.703418,2.21941 1.174196,4.3977 1.914063,6.92383 0.416385,-1.72265 0.787118,-3.45075 1.121094,-5.1875 -0.547136,-1.86098 -1.060677,-4.09731 -1.544922,-5.63672 -0.405867,-1.29025 -1.001119,-2.81086 -1.480469,-4.2168 z m 8.689453,30.53125 c -0.598646,0.86127 -1.186501,1.72981 -1.787109,2.58985 0.04136,0.183 0.170839,0.58241 0.208984,0.75586 1.299994,5.91107 2.356003,11.20517 2.345703,11.76367 -0.0079,0.42939 -4.627795,0.68555 -11.197265,0.85547 -0.126367,0.24809 -0.251074,0.49731 -0.378907,0.74414 -0.249876,0.4283 -0.478108,0.86915 -0.71875,1.30273 9.526238,-0.15185 15.252177,-0.42863 15.263672,-1.06054 0.01177,-0.64331 -1.462252,-7.51251 -3.27539,-15.26563 -0.109135,-0.46667 -0.340517,-1.18589 -0.460938,-1.68555 z m 989.951147,4.78516 c -0.8921,-0.14829 -3.0218,1.82909 -8.7851,7.70313 -4.8635,4.95694 -12.2716,11.74428 -16.4629,15.08398 -4.1911,3.33971 -10.8127,8.11439 -14.7129,10.60938 -3.9003,2.49502 -11.6492,6.8912 -17.2207,9.76953 -5.5715,2.87833 -12.161,5.94132 -14.6426,6.80664 -2.4816,0.86534 -7.071,2.49136 -10.19921,3.61328 -3.12826,1.12194 -11.05408,3.39668 -17.61328,5.05469 -6.55936,1.65799 -16.44492,3.69739 -21.9668,4.53125 -5.52198,0.83386 -14.10351,1.99486 -19.07031,2.58203 -4.96669,0.58712 -18.5041,1.78042 -30.08399,2.65039 -11.57987,0.86999 -26.92373,2.26853 -34.09765,3.10742 -7.17403,0.83886 -16.80227,2.41219 -21.39649,3.49805 -4.59423,1.08586 -11.72809,3.37598 -15.85156,5.08789 -4.12347,1.71192 -11.48165,5.59495 -16.35352,8.6289 -4.87185,3.03396 -12.98076,8.84104 -18.01953,12.90625 -5.03879,4.06518 -12.19523,10.24131 -15.90234,13.72266 -3.70714,3.48139 -8.92954,8.81112 -11.60547,11.8457 -2.67591,3.03462 -5.8435,6.65429 -7.03906,8.04297 -1.19556,1.38864 -4.06891,4.99885 -6.38477,8.02344 -2.3159,3.02457 -6.12479,8.07645 -8.46484,11.22461 -2.34005,3.14813 -4.25967,5.94545 -4.26367,6.2168 -0.005,0.27132 -1.39686,2.49946 -3.09375,4.95117 -1.69684,2.45169 -3.09718,5.01194 -3.10938,5.68945 -0.0152,0.83191 0.9485,1.03658 2.96484,0.63086 1.64216,-0.33044 4.7076,-1.67495 6.8125,-2.98828 2.10492,-1.31333 8.37518,-4.70479 13.9336,-7.53516 5.55842,-2.83035 13.56771,-6.70396 17.79883,-8.60742 4.23115,-1.90342 12.64845,-5.28195 18.70507,-7.50781 6.05661,-2.22589 14.64273,-4.97686 19.08008,-6.11328 4.43729,-1.13644 12.78488,-2.96431 18.55078,-4.0625 5.76595,-1.09824 14.09585,-2.46723 18.51172,-3.04297 4.41581,-0.57576 15.70262,-1.77154 25.08008,-2.65625 9.37754,-0.88474 20.88691,-2.07502 25.57813,-2.64649 4.69108,-0.57148 14.85803,-2.13604 22.59179,-3.47656 7.73387,-1.34056 17.45658,-3.37397 21.60742,-4.51758 4.15094,-1.1436 10.7244,-3.26069 14.60547,-4.70508 3.8811,-1.44441 10.6933,-4.42021 15.13868,-6.61328 4.44545,-2.19307 11.73205,-6.4961 16.19333,-9.5625 4.4615,-3.06638 8.3428,-5.8759 8.625,-6.24414 0.282,-0.36826 1.2695,-1.08435 2.1953,-1.58984 0.9257,-0.50551 5.4451,-4.30541 10.0411,-8.44531 4.596,-4.13991 12.3465,-12.04112 17.2246,-17.5586 4.8781,-5.51745 10.9685,-12.74101 13.5332,-16.05078 2.5647,-3.3098 7.5779,-10.30343 11.1406,-15.54297 3.5622,-5.23956 8.9589,-14.04808 11.9922,-19.57422 3.6271,-6.60838 5.3401,-10.76689 5.0039,-12.14843 -0.111,-0.45634 -0.271,-0.74159 -0.5684,-0.79102 z m -3.7597,6.95117 -5.2207,8.65821 c -2.8723,4.76174 -7.9502,12.65745 -11.2832,17.54687 -3.3329,4.88939 -9.4479,13.17731 -13.5899,18.41797 -4.1419,5.24064 -12.8264,14.7561 -19.2988,21.14453 -6.4724,6.38844 -15.4232,14.30492 -19.8887,17.59375 -4.4656,3.2888 -11.53609,8.07102 -15.71288,10.62695 -4.1767,2.55588 -12.09113,6.54002 -17.58789,8.85352 -5.49672,2.31347 -15.30215,5.53088 -21.78906,7.14844 -6.48689,1.61757 -16.93119,3.8132 -23.21094,4.88086 -6.27973,1.06765 -17.51317,2.6442 -24.96289,3.50195 -7.44963,0.85776 -18.73449,2.05308 -25.07813,2.65625 -6.34373,0.60314 -15.37303,1.57829 -20.06445,2.16797 -4.69146,0.5897 -12.37219,1.76769 -17.06836,2.61719 -4.6962,0.84949 -12.83849,2.61635 -18.09375,3.92578 -5.25525,1.30946 -13.86282,3.93473 -19.12891,5.83593 -5.2661,1.90118 -12.07122,4.40702 -15.12109,5.56836 -3.0499,1.16136 -12.36649,5.54143 -20.70313,9.73243 -8.33663,4.19098 -16.65077,8.74637 -18.47656,10.12304 l -3.32031,2.50196 2.85352,-4.375 c 1.56929,-2.40653 6.08858,-8.83468 10.04296,-14.28516 3.95438,-5.45053 11.48556,-14.68302 16.73438,-20.51563 5.24881,-5.83259 12.36683,-13.2124 15.81836,-16.40039 3.45152,-3.18797 9.93289,-8.66294 14.40234,-12.16796 4.46946,-3.50505 12.15914,-8.94858 17.08985,-12.09571 4.93075,-3.14715 12.36951,-7.08227 16.52929,-8.74414 4.15978,-1.6619 10.57218,-3.69577 14.25,-4.51953 3.67782,-0.82373 12.78528,-2.35023 20.23828,-3.39258 7.45306,-1.04237 21.66998,-2.42159 31.59375,-3.0664 9.92375,-0.64477 23.68772,-1.84184 30.58594,-2.65821 6.89818,-0.81638 16.15423,-1.96428 20.57031,-2.55273 4.41603,-0.58846 13.00567,-2.18418 19.08789,-3.54492 6.08214,-1.36074 16.04502,-4.09918 22.13868,-6.08594 6.0936,-1.98671 16.0787,-6.00337 22.1894,-8.92578 6.1108,-2.92238 15.4419,-8.13916 20.7364,-11.59375 5.2945,-3.45457 11.6833,-7.88258 14.1972,-9.83985 2.5137,-1.95726 8.1646,-6.97411 12.5567,-11.14843 z M 48.679688,336.58594 c -0.67592,0.72574 -1.353061,1.45033 -2.029297,2.17578 1.213042,0.0598 4.818544,0.0398 6.662109,0.0703 0.649696,-0.67133 1.296174,-1.34571 1.945312,-2.01758 -2.581814,-0.0563 -5.02403,-0.12296 -6.578124,-0.22851 z m 20.533203,0.34961 c -0.844859,0.004 -1.15892,0.0335 -2.052735,0.0352 -0.237076,4.6e-4 -0.294048,-0.008 -0.527344,-0.008 -0.637522,0.66261 -1.276053,1.32417 -1.914062,1.98633 1.159213,-8.9e-4 1.124175,0.0278 2.404297,0.0254 0.420723,-8.1e-4 0.477799,-0.0126 0.886719,-0.0137 0.38929,-0.68151 0.8054,-1.34837 1.203125,-2.02539 z m -5.070313,9.30859 -6.52539,0.0742 c -0.4015,0.41429 -0.799463,0.83202 -1.201172,1.24609 -0.257618,0.26006 -0.512068,0.52301 -0.769532,0.78321 l 9.064454,-0.10743 c -0.375332,-0.23165 -0.741529,-0.48411 -1.125,-0.69726 0.09853,-0.22987 0.201192,-0.45734 0.294921,-0.68945 0.005,-0.0442 0.02404,-0.0924 0.0625,-0.14454 0.0635,-0.1564 0.13529,-0.30878 0.199219,-0.46484 z m -18.257812,0.20508 -6.466797,0.0723 c -0.226325,0.2418 -0.451354,0.48482 -0.677735,0.72657 -0.57448,0.61348 -1.125054,1.20079 -1.693359,1.80468 l -0.630859,3.92774 c -0.197864,1.23349 -0.199978,2.32296 -0.285157,3.46484 0.750773,-0.77588 1.49768,-1.55565 2.25,-2.33008 0.05624,-0.34149 0.03049,-0.73488 0.103516,-1.0664 l 0.992187,-4.50781 4.404297,-0.0527 c 0.667179,-0.68049 1.335602,-1.35961 2.003907,-2.03906 z m -20.896485,15.98633 c -1.158919,1.41005 -2.317343,2.82047 -3.476562,4.23047 -0.608665,0.78623 -1.230489,1.56137 -1.84961,2.33984 -0.119836,0.24567 -0.302312,0.80578 -0.410156,1.01172 -1.084065,2.07016 -3.482892,5.20547 -5.582031,7.6914 -1.41936,2.2749 -2.789524,4.57754 -4.1210939,6.90235 3.9709319,-4.32966 7.9783949,-8.62341 12.0039059,-12.90039 0.563679,-1.13179 2.160545,-5.80415 3.435547,-9.27539 z m 14.09375,2.89062 c -0.67634,0.70247 -1.356232,1.40175 -2.03125,2.10547 0.761759,3.05403 1.906914,6.56946 2.990235,8.71484 1.32171,2.6175 4.601639,7.32443 7.291015,10.45899 2.689391,3.13456 4.709107,6.21211 4.488281,6.83984 -0.2864,0.81417 -7.76817,1.15466 -26.099609,1.18946 -7.060614,0.0135 -10.468562,0.11761 -14.339844,0.21289 -0.633255,0.69507 -1.271223,1.37449 -1.9238278,2.05078 4.1353718,0.0706 8.7394138,0.10551 17.3085938,0.004 l 26.787109,-0.3164 0.361328,-3.11328 c 0.287411,-2.48464 -0.552361,-4.1983 -4.162109,-8.50391 -2.48662,-2.96599 -5.766197,-7.64335 -7.289062,-10.39453 -1.288088,-2.327 -2.599295,-6.10052 -3.38086,-9.24805 z M 244.5293,388.70898 c -38.29583,0.0733 -39.10234,0.11518 -40.20899,2.11719 -0.6211,1.12362 -0.88605,2.85895 -0.58789,3.85547 0.29816,0.99654 2.35683,3.28904 4.57422,5.09375 2.21738,1.80475 5.26333,5.27936 6.76953,7.72266 1.63953,2.6596 3.15242,7.12487 3.76953,11.12695 0.73021,4.73607 0.56958,26.53833 -0.55078,74.78906 -1.46421,63.06421 -1.72115,68.45368 -3.49414,72.8418 -1.21756,3.01348 -4.29649,7.0945 -8.45508,11.20703 -3.59675,3.55693 -6.54834,6.982 -6.56054,7.61133 -0.0115,0.62928 0.42994,2.01376 0.98046,3.07812 0.97462,1.88402 2.79607,1.93318 68.96876,1.80664 37.38209,-0.0714 68.69726,-0.41007 69.58984,-0.75195 0.8926,-0.34196 2.10042,-1.48597 2.68359,-2.54101 0.5832,-1.05498 2.28357,-8.32727 3.7793,-16.16211 1.4957,-7.83493 3.03622,-16.15624 3.42383,-18.49024 0.46165,-2.77977 0.28047,-4.76618 -0.52539,-5.75781 -0.67666,-0.83257 -2.26279,-1.50981 -3.52539,-1.50781 -1.26259,0.002 -3.43487,1.24428 -4.82618,2.76172 -1.39132,1.5174 -4.28378,4.72377 -6.42968,7.125 -2.1459,2.40121 -6.46631,6.31707 -9.59961,8.70117 -3.13326,2.38412 -8.17026,5.79461 -11.19336,7.57812 -3.02314,1.78347 -8.21438,4.07865 -11.53711,5.10156 -3.32268,1.02288 -8.74483,1.86446 -12.04883,1.86524 -3.30403,0.002 -7.07945,-0.55066 -8.39062,-1.22852 -1.31118,-0.67791 -3.22459,-2.39285 -4.25196,-3.81054 -1.02736,-1.41773 -2.25507,-4.3442 -2.72656,-6.50391 -0.4715,-2.15971 -1.47577,-8.20814 -2.23242,-13.43945 -0.75664,-5.23124 -1.79912,-21.45326 -2.31641,-36.04883 -0.51724,-14.59562 -0.84087,-32.1693 -0.72265,-39.05469 0.11921,-6.88541 1.00778,-20.85885 1.97656,-31.05078 0.96877,-10.1919 2.75985,-22.48845 3.98047,-27.32617 1.22059,-4.83768 3.34177,-10.92606 4.71289,-13.5293 1.37107,-2.60326 3.68496,-5.82789 5.14062,-7.16601 1.62787,-1.49645 2.66567,-3.50956 2.69727,-5.22852 0.0318,-1.73806 -0.67456,-3.18372 -1.86719,-3.82617 -1.22797,-0.66149 -15.97263,-1.00569 -40.99609,-0.95899 z m 0.14062,2.00196 c 30.28176,-0.0579 37.74153,0.19136 39.25781,1.3125 1.79893,1.33012 1.74441,1.52804 -1.39648,5.03906 -1.79767,2.00955 -4.21291,5.44193 -5.36719,7.62891 -1.15431,2.18696 -3.0444,7.70038 -4.20117,12.25 -1.15675,4.5496 -2.67377,13.22879 -3.36914,19.28906 -0.69534,6.06029 -1.69682,19.38622 -2.22656,29.61133 -0.53008,10.23168 -0.63644,30.04453 -0.23633,44.06445 0.39983,14.01103 1.28013,31.12559 1.95703,38.03125 0.67693,6.90569 1.86858,15.1831 2.64649,18.39453 0.77787,3.21152 2.33512,7.16417 3.46093,8.78516 1.12582,1.62101 3.14199,3.36495 4.48047,3.875 1.33843,0.50997 6.02778,0.92231 10.41992,0.91211 5.34615,-0.0102 10.12029,-0.70528 14.44727,-2.10352 3.55486,-1.14878 9.10476,-3.78446 12.33203,-5.85742 3.2272,-2.07293 8.90814,-6.32083 12.625,-9.43945 3.71679,-3.11869 8.46276,-7.93884 10.54492,-10.71094 2.08216,-2.77212 4.08522,-5.03339 4.45117,-5.02539 0.36595,0.008 1.24207,0.38264 1.94727,0.83398 1.03499,0.66249 0.82333,3.2176 -1.0918,13.25586 -1.30488,6.83964 -2.94266,15.12861 -3.64062,18.41992 -1.00667,4.74704 -1.79089,6.24716 -3.79102,7.25391 -1.95327,0.98309 -17.36104,1.30223 -68.38476,1.41016 -59.67098,0.12751 -65.91865,-0.0107 -66.45313,-1.47266 -0.40574,-1.10988 1.20454,-3.31275 5.1582,-7.05469 3.16159,-2.99227 6.39657,-6.66652 7.1875,-8.16406 0.79093,-1.4976 1.98716,-5.11111 2.65821,-8.03125 0.83352,-3.62717 1.61629,-27.01468 2.47265,-73.81445 0.84002,-45.9082 0.92249,-70.25534 0.25,-73.81055 -0.55197,-2.91782 -2.04796,-7.1822 -3.32421,-9.47461 -1.27626,-2.2924 -4.38527,-5.95605 -6.90821,-8.14258 -3.15072,-2.73057 -4.38329,-4.47888 -3.93945,-5.58398 0.57728,-1.43727 4.63404,-1.61774 38.0332,-1.68164 z m 349.08203,3.33984 c -19.37962,0.0371 -26.96713,0.37773 -27.85742,1.25391 -0.67291,0.66227 -1.23972,2.18531 -1.26172,3.38476 -0.0219,1.19948 0.69643,2.7985 1.59766,3.55274 0.90125,0.75424 2.64627,3.74053 3.87695,6.63672 1.2307,2.89622 2.74392,8.52632 3.36328,12.51171 0.72696,4.67785 0.92989,16.83061 0.57422,34.28711 -0.36227,17.77355 -1.05252,29.61613 -2.01562,34.55469 -0.80589,4.1325 -2.10749,9.24786 -2.89258,11.36524 -0.78508,2.11737 -2.58453,5.1965 -3.99805,6.84375 -1.42906,1.66527 -2.59139,4.26256 -2.62109,5.84961 -0.0343,1.87335 0.52219,2.96332 1.61914,3.17382 0.91931,0.17622 13.48572,0.24174 27.92578,0.14454 14.44003,-0.097 26.75762,-0.48398 27.37305,-0.86133 0.61542,-0.37738 1.13675,-1.71766 1.16015,-2.97657 0.023,-1.25889 -1.07287,-3.59555 -2.43554,-5.19336 -1.36265,-1.59778 -3.30661,-5.83372 -4.32032,-9.4121 -1.01373,-3.57833 -2.20804,-11.46141 -2.65429,-17.51954 -0.44626,-6.05806 -0.67234,-18.22568 -0.50196,-27.03906 0.17033,-8.81333 0.83694,-20.30707 1.48047,-25.54101 0.64359,-5.23399 1.89459,-12.17148 2.78125,-15.41602 0.88668,-3.24455 2.99081,-7.73137 4.67578,-9.9707 1.68498,-2.23935 3.07785,-4.79276 3.09375,-5.67578 0.0161,-0.88298 -0.50166,-2.14494 -1.15039,-2.80469 -0.85829,-0.87281 -8.43288,-1.18464 -27.8125,-1.14844 z m 76.08985,0.0684 -36.55078,0.35547 -0.33985,2.5293 c -0.24945,1.84825 0.80081,3.74217 3.9043,7.03906 3.15932,3.35623 4.53565,5.86722 5.37305,9.80664 0.77867,3.66329 0.91353,16.78892 0.4414,42.59375 -0.55662,30.42088 -0.98001,38.24178 -2.29492,42.41602 -1.1277,3.5799 -2.93715,6.36429 -6.02539,9.26367 -3.38579,3.17878 -4.31892,4.70167 -4.00195,6.53515 0.25819,1.49354 1.21717,2.50466 2.55468,2.69336 1.17763,0.16596 22.85686,0.14374 48.17774,-0.0488 39.63424,-0.30149 46.25415,-0.56078 47.5918,-1.875 1.16638,-1.14598 1.69057,-4.41109 2.10351,-13.09375 0.30268,-6.36139 0.29818,-12.65652 -0.0117,-13.98828 -0.43375,-1.8638 -1.23115,-2.41806 -3.46289,-2.41406 -2.3531,0.004 -3.62685,0.99639 -6.7539,5.26953 -2.11916,2.89583 -5.71276,7.18851 -7.98633,9.53906 -2.56278,2.64962 -6.17121,5.03516 -9.4961,6.27735 -3.80721,1.42243 -7.82863,2.00583 -13.86133,2.01953 -7.90075,0.0152 -8.55311,-0.14077 -9.28124,-2.23438 -0.4308,-1.23853 -1.193,-11.56913 -1.69336,-22.95703 -0.50036,-11.38794 -0.62374,-21.41579 -0.2754,-22.2832 0.40981,-1.02027 1.87413,-1.57998 4.14844,-1.58398 1.93354,-0.004 5.2243,0.67967 7.3125,1.51757 2.0882,0.83791 4.43338,2.46375 5.21094,3.61329 0.77758,1.14951 2.64338,3.86523 4.14648,6.03515 1.99673,2.88249 3.32719,3.85886 4.93946,3.62695 2.1721,-0.31249 2.21587,-0.61108 2.82226,-19.0957 l 0.61719,-18.7793 -2.88477,0.006 c -2.38315,0.005 -3.53208,0.95659 -6.61914,5.48828 -2.05476,3.01633 -5.12953,6.20057 -6.83203,7.07618 -1.89725,0.97577 -4.91337,1.47921 -7.79297,1.29882 l -4.69921,-0.29492 -0.17774,-5.50781 c -0.0982,-3.02928 0.58753,-13.51342 1.52344,-23.29883 0.93592,-9.78542 1.97938,-18.06682 2.32031,-18.40234 0.34094,-0.33505 1.67155,-0.34525 2.95703,-0.0234 1.28551,0.32175 3.93474,1.83491 5.88672,3.36328 1.95197,1.52835 4.27009,4.12856 5.15039,5.7793 0.8803,1.65076 2.87195,4.43603 4.42774,6.18945 1.55581,1.75341 4.31129,3.98591 6.12109,4.95899 2.13287,1.14679 5.40244,1.7514 9.29687,1.7207 3.30449,-0.0263 7.05689,-0.60793 8.3379,-1.29297 1.28097,-0.68501 3.23008,-2.68429 4.33203,-4.44141 1.32218,-2.10824 2.03827,-5.01385 2.10547,-8.54687 0.0726,-3.82496 -0.47906,-6.18976 -1.93164,-8.28125 -1.11825,-1.61011 -3.7138,-3.79076 -5.76954,-4.8457 -2.05568,-1.05496 -6.61097,-2.40408 -10.12304,-2.99805 -4.04535,-0.68421 -19.78213,-0.95008 -42.9375,-0.72461 z m -157.53125,0.35547 c -2.57635,-0.18333 -5.17602,-0.16376 -8.06836,0.041 -4.47032,0.31656 -11.59922,1.5128 -15.8418,2.65821 -4.24258,1.14548 -10.56148,3.55809 -14.04297,5.35937 -3.59734,1.86124 -9.46616,6.30688 -13.5957,10.29883 -3.99653,3.86334 -8.89996,9.73265 -10.89649,13.04297 -1.99652,3.31028 -4.67733,9.65476 -5.95703,14.09961 -1.5172,5.26982 -2.37985,10.99796 -2.48047,16.46289 -0.10031,5.48308 0.53033,10.98642 1.82422,15.91797 1.08771,4.14578 3.12488,9.75711 4.52735,12.46875 1.40247,2.71161 5.58944,8.25265 9.30273,12.31445 4.04921,4.4293 9.52403,9.04735 13.68164,11.53711 3.81272,2.28323 10.34881,5.16155 14.52344,6.39649 5.89158,1.74285 10.16671,2.25032 19.10351,2.26562 7.02088,0.0121 13.65537,-0.55239 17.00196,-1.44531 3.01841,-0.80534 8.46291,-2.91396 12.09961,-4.68555 4.37352,-2.13045 9.1154,-5.6732 14.0039,-10.46484 5.20185,-5.09871 8.34456,-9.20797 10.61133,-13.875 1.95893,-4.03335 3.4761,-8.97719 3.87305,-12.6211 0.44239,-4.06127 0.25416,-6.48086 -0.58203,-7.50976 -0.67842,-0.83478 -2.3267,-1.51372 -3.66406,-1.51172 -1.87888,0.004 -2.78411,0.85758 -3.98243,3.76172 -0.85305,2.06718 -2.30291,5.11339 -3.2207,6.76758 -0.91781,1.6542 -3.73735,4.9205 -6.26758,7.25976 -2.53027,2.33927 -7.1382,5.23914 -10.23828,6.44336 -4.05874,1.57661 -7.87818,2.20454 -13.64648,2.24414 -6.06154,0.0418 -9.41092,-0.49891 -13.76172,-2.22461 -3.52145,-1.39674 -7.9624,-4.3634 -11.46094,-7.65234 -3.20874,-3.01649 -7.06253,-7.99001 -8.79297,-11.34961 -1.69438,-3.28956 -3.96608,-9.50077 -5.04687,-13.80273 -1.38951,-5.53081 -1.93459,-11.049 -1.86329,-18.83985 0.0776,-8.48121 0.5512,-12.17112 2.0586,-16.02734 1.07703,-2.75531 3.07507,-6.47816 4.43945,-8.27149 1.36438,-1.79334 3.79879,-3.93885 5.41016,-4.76758 1.61134,-0.82871 4.69268,-1.50967 6.84765,-1.51367 2.89749,-0.006 4.59337,0.67805 6.50782,2.625 1.4239,1.44804 3.02374,4.36929 3.55664,6.49219 0.53295,2.12289 0.66685,6.23082 0.29687,9.12891 -0.36993,2.89808 -1.6913,9.77853 -2.9375,15.28906 -1.88837,8.34997 -2.08834,10.71912 -1.19726,14.22266 0.71358,2.80567 2.12217,4.96222 4.23437,6.48242 2.33424,1.68001 4.9191,2.37285 9.85352,2.64258 4.55989,0.24927 8.40093,-0.19351 12.0625,-1.39258 2.95473,-0.9676 7.59234,-2.86497 10.30468,-4.2168 2.71236,-1.35181 7.10024,-4.5914 9.75,-7.19922 3.26334,-3.21166 5.42071,-6.46592 6.6875,-10.08398 1.29918,-3.71137 1.74323,-7.07862 1.45704,-11.03321 -0.22653,-3.13041 -1.36819,-7.68451 -2.53907,-10.12109 -1.17087,-2.43654 -4.73487,-6.97046 -7.91797,-10.07422 -3.49661,-3.40948 -8.64293,-7.02737 -13.00195,-9.14258 -3.96812,-1.92554 -10.75513,-4.27408 -15.08398,-5.21679 -2.80079,-0.61004 -5.3553,-0.99636 -7.93164,-1.17969 z m -98.28516,0.14062 c -14.86564,-0.12622 -28.04836,0.019 -29.29297,0.32422 -1.68991,0.41446 -2.27535,1.27992 -2.31445,3.41797 -0.0288,1.57454 0.68473,3.48015 1.58594,4.23438 0.90125,0.75425 2.6518,3.75647 3.89062,6.67187 1.26115,2.96792 2.82548,9.98387 3.55274,15.94141 0.88801,7.27478 1.1415,19.05813 0.80468,37.25586 -0.29494,15.93588 -0.95382,28.1768 -1.64257,30.50586 -0.63273,2.13953 -3.14484,5.98795 -5.58399,8.55078 -2.88632,3.03277 -6.19732,5.2912 -9.48047,6.4707 -4.91077,1.76407 -5.16102,1.7616 -9.43945,-0.13867 -2.41723,-1.0736 -5.48569,-3.46919 -6.81836,-5.32227 -1.33268,-1.85306 -2.91215,-4.71979 -3.51172,-6.37109 -0.59955,-1.65129 -1.71335,-5.93093 -2.47461,-9.50977 -1.01978,-4.7936 -1.27404,-12.7224 -0.9668,-30.11523 0.29963,-16.95613 0.91125,-26.27047 2.17383,-33.05273 0.96693,-5.19393 2.86111,-11.70037 4.20899,-14.45704 1.34789,-2.75664 3.2844,-6.25668 4.30273,-7.77929 1.42588,-2.13201 1.6066,-3.16796 0.78516,-4.50781 -0.97241,-1.58608 -3.57278,-1.73425 -29.44727,-1.68555 l -28.38281,0.0527 -0.65625,2.50391 c -0.47729,1.82047 0.0654,3.46218 1.98633,6.00586 1.45374,1.92507 3.31952,5.75141 4.14648,8.5039 0.82694,2.75248 1.93232,8.38358 2.45508,12.51368 0.52278,4.13009 1.13104,18.5504 1.35156,32.04492 0.25914,15.85653 0.87485,26.30652 1.74219,29.54101 0.73812,2.75263 2.45473,7.25636 3.81445,10.00782 1.35969,2.7515 3.93625,6.51026 5.72461,8.35351 1.78836,1.84321 5.04584,4.57039 7.23828,6.06055 2.19247,1.49014 6.14097,3.51379 8.77539,4.49609 2.63442,0.98231 8.02067,2.12044 11.96875,2.5293 v 0.002 c 3.94808,0.40889 7.62629,0.79432 8.17579,0.85742 0.54953,0.0629 4.08,-0.33664 7.84375,-0.88671 3.76377,-0.5501 8.74343,-1.86595 11.0664,-2.92383 2.32295,-1.05799 6.0383,-3.47588 8.25586,-5.37305 l 4.03125,-3.44922 2.63086,3.72266 c 1.44719,2.04727 4.68675,4.72172 7.19727,5.94336 4.06919,1.9802 6.13925,2.21994 19.08398,2.21093 10.07137,-0.007 14.98445,-0.38849 16.0332,-1.24804 0.83158,-0.68161 1.52206,-1.82645 1.53516,-2.54297 0.0131,-0.71651 -1.1237,-2.69393 -2.52539,-4.39453 -1.40171,-1.70055 -3.38052,-5.39385 -4.39844,-8.20703 -1.01788,-2.8132 -2.39769,-10.57735 -3.0664,-17.25391 -0.66872,-6.67659 -1.09332,-19.12419 -0.94336,-27.66211 0.1501,-8.53789 1.01869,-20.93341 1.92968,-27.54492 0.91101,-6.61152 2.19878,-13.5982 2.86133,-15.52734 0.66256,-1.92912 1.72999,-4.63539 2.37305,-6.01368 0.64307,-1.37824 2.02949,-3.47423 3.08203,-4.6582 1.1698,-1.31595 1.80848,-3.26476 1.64062,-5.01172 l -0.27539,-2.85742 z m 179.17383,1.43946 c 20.178,-0.0386 25.526,0.22803 26.41211,1.31836 0.8474,1.04274 0.72905,1.68015 -0.5,2.6875 -0.88632,0.72643 -2.45334,2.92982 -3.48242,4.89648 -1.02908,1.96668 -2.72324,6.95678 -3.76563,11.08985 -1.43933,5.70708 -2.12709,13.62914 -2.85937,32.92968 -0.62496,16.47521 -0.6108,29.15538 0.041,36.05274 0.55307,5.85174 1.84926,13.41719 2.88086,16.8125 1.03162,3.39537 2.99709,7.31365 4.36719,8.70703 1.3701,1.39338 2.19138,3.0061 1.82422,3.58398 h -0.002 c -0.43813,0.68945 -9.76622,1.06886 -27.14062,1.10157 -20.61755,0.0394 -26.46817,-0.22857 -26.45117,-1.21094 0.0127,-0.69373 0.89494,-1.79978 1.95898,-2.45899 1.06403,-0.6592 2.95909,-3.81403 4.21289,-7.00976 1.25374,-3.19577 2.99656,-10.54288 3.87305,-16.32813 0.94024,-6.20605 1.76574,-19.42109 2.01172,-32.23047 0.22924,-11.94077 0.019,-25.23524 -0.4668,-29.54297 -0.48577,-4.30772 -1.3432,-10.0849 -1.9043,-12.83789 -0.56112,-2.75301 -1.79765,-6.61132 -2.74804,-8.57421 -0.9504,-1.96289 -2.39984,-4.13386 -3.22071,-4.82422 -0.82093,-0.69039 -1.23385,-1.89701 -0.91796,-2.6836 0.47652,-1.1864 4.88616,-1.43861 25.87695,-1.47851 z m 81.22851,0.0488 c 36.85663,0.25631 38.08729,0.32899 43.64649,2.56054 3.59552,1.44326 6.62602,3.51065 8.1582,5.56641 1.43288,1.92247 2.41451,4.59972 2.37891,6.49609 -0.0325,1.77445 -0.57916,4.16404 -1.21289,5.31055 -0.63375,1.14645 -2.3583,3.13537 -3.83399,4.41797 -1.99501,1.73395 -3.91658,2.34267 -7.49023,2.37304 -2.64341,0.0225 -6.01156,-0.59293 -7.48438,-1.36718 -1.47281,-0.77424 -3.866,-2.68497 -5.31836,-4.2461 -1.45238,-1.56115 -3.87122,-4.71712 -5.37695,-7.01172 -1.50573,-2.29459 -4.00756,-5.17757 -5.55859,-6.40624 -1.70138,-1.34781 -4.73996,-2.41387 -7.66016,-2.68946 -4.46176,-0.42103 -4.8819,-0.27114 -5.36523,1.91992 -0.28841,1.30736 -1.15218,10.039 -1.91993,19.4043 -0.76774,9.36532 -1.44615,20.07095 -1.50585,23.78906 l -0.11133,6.75977 7.25976,-0.0176 c 5.32125,-0.0129 8.08576,-0.51865 10.35938,-1.89453 1.70588,-1.03227 4.62838,-4.19135 6.49219,-7.01953 1.8638,-2.8282 3.79188,-5.14158 4.28515,-5.14258 0.49334,-9.5e-4 0.76008,7.4347 0.59375,16.52344 -0.22965,12.55289 -0.60204,16.52339 -1.55273,16.52539 -0.68833,7.4e-4 -2.49972,-2.29401 -4.02539,-5.09961 -2.05337,-3.77603 -3.84074,-5.58807 -6.88086,-6.97461 -2.58788,-1.1803 -6.42232,-1.87581 -10.36524,-1.88281 l -6.25781,-0.01 -0.12109,8.26172 c -0.0666,4.54436 0.34857,15.9946 0.92187,25.44531 0.57334,9.45068 1.33718,17.67363 1.69727,18.27344 0.4101,0.68326 4.84042,1.08315 11.85937,1.06055 9.70136,-0.027 11.88386,-0.35208 16.25586,-2.41602 2.77731,-1.31112 6.69377,-4.1304 8.70508,-6.26562 2.0113,-2.13525 5.39176,-6.25066 7.51172,-9.14649 2.11996,-2.89582 4.26769,-5.26658 4.77148,-5.26758 0.50414,-9.7e-4 0.81325,5.53623 0.68946,12.31641 -0.15088,8.24581 -0.63026,12.71743 -1.44922,13.52344 -0.91976,0.90149 -12.86473,1.22658 -47.58008,1.29297 -25.49664,0.0487 -46.3517,-0.2026 -46.3457,-0.5586 0.007,-0.356 2.03299,-2.77099 4.50195,-5.36523 3.5095,-3.68752 4.76456,-5.94103 5.75586,-10.33203 0.87905,-3.89415 1.40281,-18.14704 1.70508,-46.47461 0.40461,-37.9192 0.30371,-41.10956 -1.4043,-44.35938 -1.0122,-1.92591 -3.41227,-4.96426 -5.33203,-6.75195 -2.46542,-2.29616 -3.17226,-3.56452 -2.40625,-4.31836 0.74008,-0.72837 13.12288,-0.98274 39.00976,-0.80273 z m -261.74609,0.31054 c 16.42938,-0.0412 25.94456,0.30505 26.33594,0.95703 0.33703,0.56145 -0.55827,2.38436 -1.98828,4.05079 -1.42999,1.66642 -3.52873,6.05429 -4.66407,9.75195 -1.13532,3.69765 -2.64798,11.68188 -3.36132,17.74219 -0.71332,6.06032 -1.42662,18.45422 -1.58594,27.54296 -0.15929,9.08874 0.25132,22.15905 0.91211,29.04297 0.66081,6.8839 1.92228,14.76713 2.80469,17.51953 0.88236,2.75235 2.64976,6.15392 3.92773,7.5586 1.27796,1.40477 2.31463,3.09163 2.30273,3.75 -0.0159,0.86946 -3.72952,1.20901 -13.57031,1.22461 -9.96418,0.0191 -14.52377,-0.38281 -17.23047,-1.51758 -2.02427,-0.84858 -4.72525,-2.53353 -6.00195,-3.74414 -1.27667,-1.21062 -2.94302,-3.43987 -3.70312,-4.95313 -0.76014,-1.51331 -1.87887,-2.749 -2.48633,-2.74804 -0.60747,0.001 -2.93792,1.63353 -5.17774,3.6289 -2.23985,1.99542 -6.6247,4.81947 -9.74609,6.27539 -4.82783,2.25184 -7.17149,2.67452 -15.69141,2.82618 -5.50842,0.0979 -11.13772,-0.031 -12.50976,-0.28516 -1.372,-0.25421 -4.50908,-1.19348 -6.97071,-2.08789 -2.46162,-0.89441 -6.118,-2.65045 -8.125,-3.90234 -2.00701,-1.25187 -5.43046,-4.16469 -7.60937,-6.47266 -2.17887,-2.308 -4.90344,-6.25877 -6.05274,-8.7793 -1.14933,-2.52053 -2.69309,-6.83523 -3.43164,-9.58789 -0.86699,-3.23129 -1.49813,-13.87683 -1.78125,-30.04101 -0.24115,-13.76988 -0.80041,-28.04156 -1.24218,-31.71485 -0.44182,-3.67328 -1.53912,-9.0778 -2.43946,-12.01172 -0.90035,-2.93397 -2.73871,-6.84604 -4.08593,-8.69336 -1.98735,-2.72504 -2.18582,-3.52603 -1.04883,-4.24023 0.77078,-0.48412 12.66454,-0.90204 26.43164,-0.92774 13.849,-0.0265 25.68637,0.37083 26.49804,0.88868 1.2313,0.7855 1.02544,1.38836 -1.28124,3.75586 -1.51167,1.55151 -3.49179,4.82677 -4.4004,7.27734 -0.90859,2.45058 -2.38661,8.53067 -3.28515,13.51172 -1.13048,6.26686 -1.77704,16.9236 -2.09766,34.5957 -0.38408,21.16312 -0.17765,26.83436 1.20703,33.09766 0.91905,4.15701 2.73278,9.54351 4.0293,11.9707 1.29654,2.42711 3.8532,5.43004 5.68164,6.67383 1.82844,1.2437 4.86279,2.54782 6.74414,2.89844 1.89388,0.35298 5.53777,0.0478 8.16211,-0.68555 3.36732,-0.94091 6.26257,-2.82081 10,-6.49219 3.33077,-3.27193 5.68535,-6.60467 6.41797,-9.08203 0.70845,-2.39575 1.35501,-14.98137 1.66797,-32.45703 0.35421,-19.84516 0.11213,-31.74533 -0.79102,-39.05469 -0.7144,-5.7822 -1.76475,-12.09082 -2.33593,-14.01758 -0.5712,-1.92677 -2.37117,-5.23932 -3.99805,-7.36132 -2.37066,-3.09217 -2.67818,-4.03259 -1.55469,-4.73828 0.771,-0.48429 12.97723,-0.90992 27.125,-0.94532 z m 96.07813,0.0117 c 2.41824,0.0808 4.91657,0.4609 8.58593,1.17383 5.53705,1.0758 11.62927,3.15881 16.66407,5.69922 4.36503,2.20245 10.0452,6.09972 12.62109,8.66015 2.57592,2.56046 5.7738,6.81597 7.10742,9.45704 1.33363,2.64108 2.65951,6.7712 2.94531,9.17773 0.41275,3.47529 -0.0556,5.5829 -2.27148,10.24219 -1.53441,3.22647 -3.79603,6.94554 -5.02734,8.26367 -1.23128,1.31814 -4.51889,3.84876 -7.30469,5.625 -2.78585,1.77625 -8.17207,4.25629 -11.9707,5.51172 -4.8951,1.61782 -8.35383,2.14653 -11.87305,1.81445 -2.73095,-0.25772 -6.15407,-1.3605 -7.60742,-2.45117 -1.45336,-1.09066 -3.13236,-3.53057 -3.73243,-5.42188 -0.91101,-2.87148 -0.66687,-5.16877 1.48438,-13.92773 1.41689,-5.76906 2.62941,-13.41958 2.69531,-17 0.0762,-4.19381 -0.51087,-7.93318 -1.64844,-10.51172 -0.9712,-2.20138 -2.70354,-4.84847 -3.84961,-5.88281 -1.51447,-1.36681 -3.56484,-1.86517 -7.50585,-1.82227 -2.98221,0.0325 -6.72464,0.73015 -8.31641,1.54883 -1.59174,0.81864 -3.64366,2.32365 -4.56055,3.3457 -0.91693,1.02208 -2.63003,3.7088 -3.80664,5.97071 -1.17659,2.26194 -2.73268,7.19468 -3.45703,10.96094 -0.75213,3.91068 -1.13269,10.35438 -0.88867,15.02343 0.235,4.49655 1.31782,11.95826 2.40625,16.58203 1.08842,4.6238 3.44232,11.10868 5.23047,14.41016 1.78814,3.30147 5.16312,7.8421 7.50195,10.08984 2.33884,2.24772 5.84396,4.99423 7.78906,6.10352 1.94507,1.10931 5.90882,2.80578 8.8086,3.76953 3.9616,1.3164 7.30053,1.62857 13.42578,1.25586 4.97491,-0.3027 10.42609,-1.37025 13.99023,-2.73828 3.35878,-1.28923 7.70888,-4.01571 10.23633,-6.41797 2.41709,-2.29735 5.08548,-5.53152 5.92969,-7.18555 0.8442,-1.65406 2.21535,-4.35963 3.04687,-6.01367 0.83154,-1.65404 2.16971,-3.00776 2.97461,-3.00976 1.10882,-0.002 1.3984,1.18675 1.19727,4.91015 -0.18144,3.35853 -1.44615,7.22184 -3.9961,12.20313 -2.05217,4.00892 -5.76794,9.35123 -8.25781,11.87109 -2.48984,2.5199 -7.29522,6.35579 -10.67773,8.52344 -3.38248,2.16764 -8.971,4.93514 -12.41992,6.15039 -4.54309,1.60079 -9.30841,2.32454 -17.29297,2.625 -8.75791,0.32956 -12.5185,0.0105 -18.31641,-1.55274 -4.01279,-1.08194 -10.67074,-3.88863 -14.79492,-6.23632 -4.2157,-2.39981 -10.19186,-7.03935 -13.65234,-10.59766 -3.38543,-3.4811 -7.61224,-9.10582 -9.39258,-12.5 -1.7803,-3.39421 -4.0223,-8.42355 -4.98242,-11.17578 -0.96011,-2.75227 -1.91821,-8.83411 -2.12891,-13.51563 -0.2743,-6.09468 0.11479,-10.36195 1.37109,-15.02539 0.965,-3.58213 3.41477,-9.78859 5.44336,-13.79297 2.48408,-4.90352 5.92264,-9.51157 10.5332,-14.11132 3.76518,-3.75635 9.71856,-8.50131 13.23047,-10.54493 3.51192,-2.04364 9.10056,-4.63073 12.41797,-5.74804 3.31745,-1.11735 9.61354,-2.54377 13.99219,-3.16992 3.34694,-0.4786 5.68527,-0.696 8.10352,-0.61524 z m 403.58789,150.24219 c -2.80816,0.005 -6.43496,0.69235 -8.0586,1.52734 -1.62355,0.83504 -3.4312,2.38647 -4.01758,3.44727 -0.58638,1.0609 -1.10639,3.97808 -1.15039,6.48437 -0.0659,3.60088 0.48328,5.16344 2.61719,7.44922 1.48516,1.59089 5.38493,3.9169 8.66602,5.16797 3.28116,1.25114 6.74275,2.94623 7.6914,3.76758 0.94865,0.82137 1.70184,2.62766 1.67774,4.01367 -0.0254,1.38604 -0.80657,3.34643 -1.73633,4.35547 -0.92993,1.00913 -3.05572,1.83684 -4.72461,1.83984 -1.73744,0.003 -4.00852,-0.92167 -5.3125,-2.16601 -1.25261,-1.19522 -2.26581,-2.72094 -2.25391,-3.38867 0.0122,-0.66774 -1.34581,-1.41143 -3.01757,-1.6543 -1.67182,-0.24294 -3.28537,-0.055 -3.58594,0.41797 -0.3005,0.47302 -0.2778,2.19452 0.0508,3.82617 0.32853,1.63167 1.73263,3.87096 3.12109,4.97656 2.03838,1.62337 4.02558,2.0103 10.31836,1.9961 4.28607,-0.008 8.52614,-0.2968 9.42383,-0.64063 0.89774,-0.34394 2.31428,-1.90101 3.14844,-3.46094 0.83418,-1.56 1.54336,-4.18215 1.57226,-5.82617 0.0301,-1.64395 -0.39084,-4.21992 -0.93554,-5.72461 -0.5449,-1.5046 -1.75056,-3.31349 -2.67969,-4.01953 -0.92909,-0.70601 -4.4874,-2.28344 -7.90625,-3.50586 -3.41875,-1.22236 -7.14173,-3.22643 -8.27344,-4.45312 -1.85394,-2.00963 -1.91731,-2.51019 -0.65039,-5.07032 1.16348,-2.35083 2.1266,-2.89573 5.58789,-3.15429 3.67141,-0.27424 4.4537,0.0616 6.38867,2.74218 1.5493,2.14629 3.0432,3.05283 5.02149,3.04883 2.26226,-0.004 2.82327,-0.45433 2.85547,-2.28711 0.023,-1.25451 -0.64153,-3.28401 -1.47852,-4.50976 -0.83696,-1.22572 -2.81244,-2.8987 -4.38867,-3.71875 -1.57624,-0.82003 -5.16266,-1.48547 -7.9707,-1.48047 z m -72.72461,0.13867 c -6.18979,0.0119 -6.78375,0.21826 -10.17774,3.55859 -3.42783,3.37358 -3.58021,3.79784 -3.09375,8.65625 0.28132,2.80969 1.23839,5.92708 2.12696,6.92774 0.88856,1.00065 4.75983,3.02279 8.60156,4.49414 3.84178,1.4714 7.84495,3.55163 8.89648,4.62109 1.37702,1.40029 1.71832,2.68945 1.22071,4.61133 -0.38011,1.46771 -1.43783,3.23362 -2.35157,3.92383 -0.91372,0.69031 -2.94775,1.25972 -4.51953,1.26172 -1.69933,0.003 -3.83691,-0.99036 -5.27148,-2.44922 -1.32689,-1.34947 -2.40513,-2.87123 -2.39453,-3.38281 0.009,-0.51166 -0.76746,-1.13467 -1.72657,-1.38282 -0.95912,-0.24802 -2.31127,-0.26034 -3.0039,-0.0273 -0.69258,0.23301 -1.28576,1.75968 -1.31446,3.39258 -0.0352,1.92406 0.86298,3.83162 2.55079,5.41992 1.92562,1.81216 3.67574,2.43125 6.71484,2.37305 3.21388,-0.0611 3.67647,-0.2655 2.12305,-0.93555 -1.52135,-0.65612 -0.94464,-0.87545 2.45703,-0.93555 3.11368,-0.0553 5.14676,-0.73037 6.79883,-2.25976 1.62603,-1.50511 2.38002,-3.31353 2.42382,-5.82617 0.0408,-2.23165 -0.67664,-4.45557 -1.85351,-5.74219 -1.05651,-1.155 -4.41865,-3.03546 -7.4707,-4.17969 -3.05202,-1.14424 -5.90384,-2.08108 -6.3379,-2.08008 -0.43405,8.6e-4 -1.82387,-1.11812 -3.08789,-2.48828 -1.52345,-1.65134 -2.27392,-3.69715 -2.23242,-6.0664 0.0457,-2.4954 0.8496,-4.34505 2.66406,-6.13086 1.75464,-1.72686 4.08098,-2.72735 7.16407,-3.08008 3.54138,-0.40527 5.33822,-0.0439 8,1.61523 1.8877,1.17664 3.69877,2.87034 4.02539,3.76367 0.32643,0.89327 0.34418,1.87155 0.0391,2.17188 -0.30517,0.30038 -1.82089,-1.00212 -3.36719,-2.89258 -2.54309,-3.10881 -3.29295,-3.42927 -7.85937,-3.35547 -2.77674,0.0448 -5.76634,0.66848 -6.64258,1.38672 -1.04625,0.8575 -1.62584,2.9752 -1.68164,6.16797 -0.0722,3.94186 0.33193,5.13869 2.13672,6.31836 1.22438,0.80031 4.88344,2.44441 8.13086,3.6543 3.24736,1.20991 6.92756,3.24028 8.17773,4.51172 1.50699,1.53255 2.24929,3.48957 2.20899,5.80664 -0.04,2.18774 -0.93056,4.4826 -2.38086,6.13671 -1.27427,1.45332 -3.89343,3.01578 -5.82032,3.47071 -3.49213,0.82453 -3.48835,0.82662 1.17774,0.91992 3.93096,0.0785 5.02162,-0.32959 6.80469,-2.54883 1.55975,-1.94127 2.1545,-4.09563 2.2246,-8.11523 0.0873,-4.76917 -0.27442,-5.82621 -2.80664,-8.22852 -1.59803,-1.51604 -4.90199,-3.31393 -7.34179,-3.99609 -2.43992,-0.68213 -5.815,-2.0859 -7.5,-3.11914 -2.15468,-1.32127 -3.04743,-2.6471 -3.01563,-4.46875 0.026,-1.42452 0.70277,-3.23499 1.50391,-4.02344 0.80104,-0.78838 3.17878,-1.43545 5.2832,-1.43945 3.13461,-0.004 4.17782,0.53845 5.77344,2.99218 1.3744,2.11342 2.75814,2.99619 4.70117,2.99219 2.37057,-0.002 2.76294,-0.40675 2.80664,-2.9043 0.0379,-2.06673 -0.94862,-3.79216 -3.42969,-6.00195 -3.13869,-2.79545 -4.12981,-3.10129 -10.05468,-3.08789 z m -128.52344,0.11133 -2.75977,0.32226 -2.75781,0.32227 -0.79101,15.79883 c -0.72119,14.42917 -0.90278,15.52987 -2.09961,12.70117 -0.72073,-1.70336 -4.11142,-7.22822 -7.53516,-12.27734 -3.4237,-5.04911 -6.93817,-10.6025 -7.81055,-12.3418 -0.98271,-1.95924 -2.57586,-3.35507 -4.1875,-3.66992 -1.43069,-0.27948 -3.00241,-0.12763 -3.49218,0.33984 -0.48978,0.46745 -1.13727,9.33483 -1.43946,19.70508 -0.30221,10.37028 -0.36373,19.41935 -0.13672,20.10742 v 0.002 c 0.22704,0.68804 1.71545,1.2481 3.3086,1.2461 l 2.89648,-0.008 0.26953,-14.6836 0.26758,-14.68359 9.39258,14.66601 c 8.99786,14.05151 9.52991,14.66521 12.74609,14.65821 l 3.35742,-0.008 0.38477,-21.09765 z m 70.57617,0.50391 -11.51367,0.0195 -11.51563,0.0195 -0.65039,20.7832 -0.65234,20.78516 12.03516,-0.0215 c 11.28808,-0.0216 12.03776,-0.14427 12.07226,-1.98633 0.0325,-1.77937 -0.78841,-1.98958 -8.7207,-2.23632 l -8.75586,-0.27344 0.16992,-6.50977 0.16992,-6.50976 7.96875,-0.51758 c 7.13437,-0.46191 7.97256,-0.72445 8.00586,-2.51758 0.033,-1.80557 -0.72694,-2.03093 -7.71679,-2.28125 -5.11918,-0.18332 -7.79978,-0.6879 -7.88868,-1.48633 -0.074,-0.66523 -0.22208,-2.56256 -0.32812,-4.21484 -0.10589,-1.65225 0.0526,-4.0002 0.35156,-5.21875 0.49871,-2.0325 1.21851,-2.2418 8.71094,-2.52148 7.96613,-0.29746 8.16799,-0.36634 8.21289,-2.8086 z M 476.70312,547.5 c -1.10624,0.002 -2.09217,0.91757 -2.42968,2.25781 -0.31234,1.23989 -0.55331,8.78868 -0.53711,16.77539 0.0229,11.37416 0.38672,15.21674 1.68359,17.72461 0.91063,1.76106 2.4372,3.65911 3.39063,4.21875 0.95344,0.5596 3.53501,0.98998 5.73828,0.95508 3.47163,-0.0548 3.66655,-0.16637 1.45898,-0.83594 -1.40104,-0.4249 -3.51954,-1.29678 -4.70898,-1.9375 -1.1894,-0.64074 -2.8188,-2.48064 -3.6211,-4.08789 -1.13353,-2.27081 -1.36165,-6.22592 -1.01953,-17.74414 l 0.43946,-14.82226 0.37304,14.51953 c 0.27654,10.77405 0.79815,15.35093 2.01758,17.73633 1.22185,2.39005 2.7163,3.50301 5.83008,4.33984 3.07332,0.82576 5.17468,0.83093 7.89258,0.0156 2.0566,-0.61689 4.55506,-2.33402 5.61718,-3.86132 1.60294,-2.30478 2.0122,-5.14674 2.5254,-17.52539 0.33683,-8.12516 1.0213,-14.77244 1.52148,-14.77344 0.50017,-9.4e-4 0.80614,5.51795 0.67969,12.26562 -0.1265,6.74773 -0.75597,14.04603 -1.39844,16.21875 -0.64247,2.17267 -2.51426,5.19187 -4.16016,6.70703 -1.64586,1.51509 -4.21758,2.9416 -5.71484,3.17188 -1.84111,0.28314 -1.33027,0.46445 1.57813,0.56055 3.47795,0.11468 4.77923,-0.36584 6.80859,-2.51758 1.38008,-1.46324 3.01261,-4.28441 3.62695,-6.26758 0.62919,-2.03141 1.10123,-9.93899 1.07813,-18.11328 -0.0329,-11.95 -0.30405,-14.55449 -1.53711,-14.76758 -0.82339,-0.14232 -2.14455,0.15394 -2.93555,0.6582 -1.11134,0.70835 -1.56247,4.22874 -1.98242,15.49024 -0.2989,8.01559 -1.04893,15.48721 -1.66602,16.60351 -0.61702,1.11629 -2.50031,2.73871 -4.18554,3.60547 -2.49959,1.28555 -3.70098,1.36495 -6.52149,0.4336 -1.90165,-0.62789 -4.06655,-2.11397 -4.8125,-3.30274 -0.96687,-1.54086 -1.35375,-6.331 -1.34375,-16.68359 0.008,-7.98685 -0.39842,-15.08391 -0.90429,-15.77149 -0.50586,-0.68751 -1.75782,-1.24809 -2.78126,-1.24609 z m 86.00196,0.0449 c -4.3077,0.31945 -6.43287,1.02878 -8.32813,2.7832 -1.39949,1.29553 -2.8525,3.85844 -3.23047,5.69532 -0.37794,1.83686 -0.41603,4.50861 -0.084,5.93554 0.33211,1.42699 1.69459,3.6208 3.02734,4.875 1.33277,1.25418 5.21862,3.27341 8.63672,4.48829 3.41811,1.2149 6.9864,3.12 7.92969,4.23437 0.94326,1.11432 1.70004,2.87735 1.68164,3.91797 -0.019,1.04064 -0.95271,2.79663 -2.07422,3.90039 -1.12153,1.10379 -3.32927,2.00972 -4.90625,2.01172 -1.76289,0.003 -3.86568,-1.00854 -5.45898,-2.62891 -1.42521,-1.44941 -2.58513,-2.97324 -2.57813,-3.38476 0.008,-0.41146 -1.08409,-0.95568 -2.42773,-1.21094 -1.34366,-0.25523 -2.85885,-0.057 -3.36524,0.44141 -0.50608,0.49832 -0.73075,1.99723 -0.5,3.33203 0.23073,1.33476 1.53568,3.56328 2.90039,4.95117 2.27245,2.31089 3.21397,2.52396 11.18165,2.50586 7.74057,-0.0148 8.93987,-0.26663 10.86914,-2.28516 1.19258,-1.24782 2.49956,-4.13666 2.90625,-6.41992 0.55804,-3.1333 0.2996,-4.92219 -1.0586,-7.29297 -1.16244,-2.02896 -3.73706,-4.0293 -7.26953,-5.65039 -3.00776,-1.38035 -7.03102,-3.26686 -8.94141,-4.19336 -2.53066,-1.22732 -3.54587,-2.4338 -3.74023,-4.44336 -0.14673,-1.51692 0.4192,-3.43251 1.25781,-4.25781 0.85953,-0.84593 3.32408,-1.50477 5.64844,-1.50977 3.53193,-0.007 4.35937,0.4227 5.77344,2.98828 1.1895,2.15807 2.40433,2.9941 4.3457,2.9961 1.48184,6.2e-4 2.96773,-0.42977 3.30273,-0.95703 0.33499,-0.52719 -0.0346,-2.57058 -0.82226,-4.54102 -1.0145,-2.53791 -2.51994,-4.03877 -5.16211,-5.14648 -2.47249,-1.03657 -5.67982,-1.41913 -9.51367,-1.13477 z m 65.28125,0.0352 -2.50391,0.13672 -0.65234,20.78125 -0.65039,20.78515 3.43164,-0.008 3.42969,-0.008 0.45507,-19.78125 c 0.25118,-10.87906 0.1283,-20.28952 -0.27343,-20.91211 -0.40174,-0.62262 -1.85829,-1.06934 -3.23633,-0.99414 z m -221.77149,0.23437 -6.01367,0.33203 -0.65039,20.78321 -0.65039,20.77929 11.84766,-0.0195 c 11.63088,-0.0222 11.89735,-0.0746 14.48437,-2.7832 1.44941,-1.51753 2.95075,-4.14467 3.33789,-5.83984 0.38716,-1.69518 0.27488,-4.26903 -0.25,-5.71875 -0.52489,-1.44977 -1.86481,-3.5627 -2.97851,-4.69532 l -2.02539,-2.05859 2.0625,-2.17578 c 1.53709,-1.62141 2.08705,-3.54254 2.16015,-7.54102 0.0788,-4.30619 -0.36008,-5.8323 -2.22656,-7.73047 -1.6062,-1.63343 -3.98989,-2.56469 -7.70508,-3.01367 -2.95834,-0.35777 -8.08524,-0.50124 -11.39258,-0.31836 z m 505.88086,0.85938 c 2.04584,-0.002 5.13807,0.87069 6.87305,1.9375 1.73502,1.06675 3.63424,2.86415 4.21875,3.99414 0.58488,1.12998 0.81417,2.05369 0.51172,2.05469 -0.30245,6.4e-4 -1.83208,-1.4609 -3.39844,-3.24805 -2.51773,-2.8726 -3.44679,-3.25045 -8.02344,-3.24023 -4.2325,0.008 -5.53448,0.44286 -7.13476,2.3789 -1.0765,1.30238 -1.98558,3.86255 -2.01758,5.68945 -0.0438,2.39211 0.66441,3.89767 2.5293,5.38282 1.4243,1.13419 5.18546,3.0107 8.35937,4.16992 3.17385,1.1593 6.78682,3.20996 8.0293,4.55664 1.59101,1.72458 2.23555,3.65033 2.18555,6.51172 -0.0605,3.30534 -0.63876,4.50748 -3.09961,6.45312 -2.31378,1.82943 -4.25228,2.39725 -8.24805,2.40625 -4.66517,0.0134 -5.60134,-0.36794 -8.76172,-3.58203 -1.94619,-1.97914 -3.26493,-3.86727 -2.93164,-4.19531 0.33324,-0.32794 1.94623,1.06588 3.58594,3.09766 2.74931,3.40668 3.3916,3.69479 8.25976,3.68359 4.0747,-0.008 5.71701,-0.485 7.20118,-2.0957 1.1544,-1.2528 1.94926,-3.5569 1.98046,-5.76368 0.0308,-2.02164 -0.22316,-4.41772 -0.5625,-5.32617 -0.33935,-0.90847 -4.33911,-3.06961 -8.88867,-4.80078 -4.54963,-1.73106 -9.04332,-4.06897 -9.98633,-5.19726 -0.94296,-1.1283 -1.68589,-3.53193 -1.65429,-5.3418 0.046,-2.5129 0.90996,-4.02735 3.65625,-6.40625 2.64531,-2.2915 4.58013,-3.11967 7.3164,-3.11914 z m -149.73437,1.10351 c 1.24226,-0.17838 5.85914,-0.11394 10.25976,0.14258 l 8,0.4668 -9.01953,0.53711 -9.02148,0.53711 -0.14649,8.01172 -0.14843,8.01172 8,0.52929 8,0.52735 -8.01758,0.47265 -8.01953,0.47266 -0.44727,8.72656 -0.44922,8.72656 9.29492,0.3125 9.29493,0.3125 -9.59961,0.22657 c -5.27947,0.12442 -9.89352,-0.0729 -10.25391,-0.43946 -0.36041,-0.36657 -0.50353,-8.89872 -0.32031,-18.95898 0.33313,-18.20641 0.34561,-18.29234 2.59375,-18.61524 z m -198.17969,0.0586 c 4.0685,-0.008 6.04304,0.50196 7.64844,1.97656 1.19016,1.09322 2.57292,2.78087 3.07422,3.75 0.5013,0.96912 0.55922,1.76281 0.12695,1.75781 -0.43233,-0.003 -1.50433,-1.30574 -2.38086,-2.89648 -0.99929,-1.81359 -2.74764,-3.14575 -4.68945,-3.57031 -1.70321,-0.37225 -4.45866,-0.37488 -6.12305,-0.008 -1.66437,0.36739 -3.70952,1.33996 -4.54492,2.16211 -0.88967,0.87556 -1.55396,3.33879 -1.60156,5.94531 -0.0721,3.93768 0.29012,4.68119 3.13671,6.4668 1.76937,1.10979 5.19421,2.56239 7.61133,3.22656 2.41713,0.66424 5.65113,2.40005 7.1875,3.85743 2.14771,2.03728 2.77856,3.55436 2.72266,6.5664 -0.0546,2.98497 -0.7525,4.56063 -2.92969,6.61524 -2.36574,2.23253 -3.76861,2.69489 -8.1582,2.70507 -4.73379,0.009 -5.67452,-0.36798 -8.77539,-3.52148 -1.91015,-1.94257 -3.14719,-3.85125 -2.75,-4.24219 0.39722,-0.39094 1.15007,0.0801 1.67383,1.04688 0.52377,0.96676 1.89571,2.65118 3.04882,3.74219 1.4643,1.38535 3.49186,1.9816 6.72461,1.9746 3.27417,-0.006 5.28095,-0.60915 6.85743,-2.05664 1.5681,-1.43972 2.24998,-3.22043 2.30078,-6.01171 0.0463,-2.53101 -0.5884,-4.64089 -1.75391,-5.82618 -1.00472,-1.02179 -5.0601,-3.09518 -9.01367,-4.60937 -5.43318,-2.08077 -7.64246,-3.51713 -9.04297,-5.88281 -1.01908,-1.72146 -1.83862,-3.91193 -1.82422,-4.86719 0.0154,-0.95527 1.36998,-3.21169 3.00977,-5.01367 2.67946,-2.9445 3.53638,-3.27591 8.46484,-3.28711 z m 143.88281,0.22656 c 0.59811,-10e-4 0.84317,7.14266 0.63672,18.4668 -0.19877,10.86324 -0.74205,18.71764 -1.32031,19.07226 -0.5407,0.33154 -4.14134,-4.25492 -8.00195,-10.1914 -3.86062,-5.93645 -8.54808,-13.17312 -10.41602,-16.08204 -2.10056,-3.2712 -3.67549,-4.8484 -4.12891,-4.13476 -0.52793,0.8308 -0.87912,0.77133 -1.25195,-0.21094 -0.28478,-0.75035 -0.68764,5.95901 -0.89453,14.91016 -0.22121,9.55431 -0.76977,16.27658 -1.32812,16.27734 -0.54589,10e-4 -0.95821,-6.50548 -0.97071,-15.27148 -0.0116,-8.39987 0.16904,-16.96326 0.40235,-19.0293 0.23331,-2.06596 0.9404,-3.72881 1.57031,-3.69531 0.62985,0.0336 3.61425,3.97094 6.63281,8.75 3.01856,4.77905 7.53795,11.98084 10.04297,16.00195 2.50505,4.02103 5.08824,7.13276 5.74023,6.91602 0.82558,-0.27443 1.35609,-5.15719 1.74805,-16.08594 0.33474,-9.33239 0.95872,-15.69249 1.53906,-15.69336 z m -80.04297,0.34766 c 0.73211,0.24418 0.93037,6.31938 0.61524,18.81836 -0.25598,10.15147 -0.5979,18.58881 -0.76172,18.75 -0.16383,0.16126 -0.59271,-0.007 -0.95312,-0.37305 -0.36042,-0.36651 -0.50306,-8.9668 -0.31836,-19.11133 0.23476,-12.82864 0.66606,-18.33477 1.41796,-18.08398 z m -226.36132,0.23632 9.25976,0.0156 c 7.57055,0.0127 9.668,0.35966 11.48828,1.89844 1.22468,1.03532 2.46713,3.20886 2.76172,4.83007 0.3307,1.8198 -0.10775,4.15133 -1.14648,6.09376 -0.92537,1.73045 -1.91279,3.1477 -2.19336,3.14843 -0.28058,5e-4 -0.027,-0.87293 0.5625,-1.93945 0.58957,-1.06655 1.09801,-3.46009 1.13281,-5.32031 0.037,-2.01954 -0.74447,-4.26392 -1.93945,-5.57032 -1.7351,-1.89702 -3.06016,-2.18952 -9.97071,-2.17382 l -7.97265,0.0176 -0.14258,7.8125 c -0.0867,4.74056 0.31939,8.28381 1.03516,9.01172 0.91726,0.93291 0.90436,1.19918 -0.0606,1.20118 -0.91424,0.002 -1.20633,2.30912 -1.11133,8.76562 l 0.12891,8.76367 4.99804,0.30469 c 2.74878,0.16823 6.49409,0.0231 8.32227,-0.32227 1.82816,-0.34534 4.21443,-1.50514 5.30469,-2.57812 1.31034,-1.28957 2.00764,-3.32614 2.05664,-6.00586 0.0563,-3.07476 -0.54017,-4.63254 -2.47266,-6.45117 -1.63679,-1.54034 -4.01641,-2.50338 -6.65429,-2.69336 l -4.10743,-0.29492 4.72266,-1.07813 c 3.34648,-0.7653 4.65296,-0.76692 4.48242,-0.01 -0.13239,0.58802 1.18315,2.49578 2.92383,4.24023 2.18716,2.19189 3.14887,4.11324 3.10937,6.21875 -0.0362,1.97976 -1.16722,4.28755 -3.22851,6.5918 l -3.16992,3.55273 -9.40821,0.0137 -9.4082,0.0156 0.34766,-19.0293 z m 9.95507,2.98633 c 4.67245,-0.009 6.44369,0.43336 7.97266,1.98828 1.08122,1.09959 1.94612,3.1324 1.91992,4.51758 -0.0323,1.76665 -1.02791,3.11335 -3.33593,4.50977 v 0.002 c -1.80971,1.09497 -3.74004,1.91763 -4.28907,1.82813 -0.54902,-0.0895 -2.68502,-0.33668 -4.74609,-0.54883 l -3.74805,-0.38477 0.10938,-5.94922 0.10937,-5.94922 z m -0.46484,18.02735 c 4.4249,-0.009 6.51343,0.50028 8.47266,2.06054 1.43008,1.13885 2.58305,2.96848 2.56445,4.06641 -0.0201,1.0979 -0.49326,2.82148 -1.05078,3.83008 -0.55749,1.00852 -2.45201,2.33515 -4.20899,2.94726 -1.75697,0.61218 -5.15487,1.1171 -7.55078,1.1211 l -4.35742,0.01 0.12891,-7.00976 0.1289,-7.01172 z m 418.49023,8.21289 c 0.55066,-0.001 0.98931,0.64152 0.97461,1.42773 -0.0144,0.7863 1.14415,2.3631 2.57422,3.50195 1.43006,1.13894 2.19799,2.07188 1.70508,2.07227 -0.49285,9.4e-4 -2.11059,-1.14256 -3.59375,-2.53906 -1.4831,-1.39647 -2.68969,-2.9714 -2.67969,-3.5 0.01,-0.52852 0.46883,-0.96217 1.01953,-0.96289 z" />
  </g>
</svg>
